<svg id="Layer_1" data-name="Layer 1" xmlns="http://www.w3.org/2000/svg" viewBox="0 0 1080 1080"><defs><style>.cls-1{fill:#fff;}.cls-2{fill:#0075ff;}</style></defs><title>BBBG-Final-WhiteOnBlack</title><circle id="Cricle_Black" data-name="Cricle Black" cx="540" cy="540" r="540"/><g id="BIG_BAND_BG_White" data-name="BIG BAND BG White"><path class="cls-1" d="M340.07,142l64.44-11.36q55.74-9.69,64.83,41.9l6.52,36.95q4.26,24.17-16.88,38.23,24.67,6,28.93,30.15L494.45,315q9.07,51.46-49.27,61.89L383.4,387.74Zm48,27.57L400.47,240l13.15-2.32q8.72-1.54,11.8-3.12,10.68-5.88,8.61-17.66l-6.51-36.94q-3-16.78-21.14-13.58ZM406.65,275l12.41,70.39,18.33-3.23q18.18-3.21,15.24-19.87l-6.54-37.07Q444,273.5,432,271.74q-3.45-.56-12.16,1Z"/><path class="cls-1" d="M487.69,116l41.82-7.37,43.33,245.72L531,361.71Z"/><path class="cls-1" d="M713.51,280.34q9.11,51.6-51,62.33-60,10.57-69.12-41.15l-26.5-150.29q-9.11-51.58,50.9-62.18t69.24,41l5.83,33.06L651,170.48l-5.83-33.06q-2.91-16.53-21.11-13.45l-.3,0q-18,3.18-15.09,19.84l26.5,150.29q2.94,16.65,21.11,13.45,18.33-3.24,15.39-19.89L661.53,230.1l-18.17,3.21-6.19-35.07,60-10.58Z"/><path class="cls-1" d="M388.33,415.7l64.43-11.36q55.74-9.7,64.84,41.9l6.51,36.94q4.27,24.18-16.87,38.23,24.66,6,28.93,30.15l6.54,37.08q9.07,51.47-49.28,61.89l-61.77,10.89Zm48,27.57,12.42,70.38,13.15-2.32q8.72-1.53,11.79-3.11,10.69-5.88,8.62-17.66l-6.51-36.95q-3-16.78-21.14-13.57Zm18.6,105.45,12.41,70.38,18.33-3.23q18.17-3.2,15.24-19.86l-6.54-37.07q-2.09-11.78-14.12-13.52-3.45-.55-12.17,1Z"/><path class="cls-1" d="M679.76,527.79l29,84.77L666.46,620l-17.31-50.67-42.71,7.53.91,53.56-42.12,7.43-1.71-89.19,1.54-164.14,57.34-10.11Zm-42.26,7.46-34-99.38,2.06,105Z"/><path class="cls-1" d="M683.26,363.69l41.82-7.37,64.74,135.54L764.69,349.34l38.72-6.83,43.33,245.72-41.83,7.37L742.45,464.31l24.34,138-40.2,7.09Z"/><path class="cls-1" d="M834.57,337,899,325.65q55.74-9.69,64.84,41.9L989,510q9.07,51.48-49.28,61.89l-61.77,10.9Zm48,27.56,31,175.84,18.32-3.23q18.18-3.21,15.24-19.86L922,374.93q-3-16.79-21.13-13.58Z"/><path class="cls-1" d="M436.59,689.38,501,678q55.74-9.69,64.84,41.9l6.51,37q4.26,24.17-16.88,38.23,24.68,6,28.94,30.15L591,862.31q9.09,51.48-49.27,61.89l-61.77,10.9Zm48,27.56L497,787.33,510.14,785c5.81-1,9.74-2.06,11.79-3.12q10.7-5.88,8.62-17.66L524,727.29q-3-16.78-21.13-13.58Zm18.6,105.46,12.41,70.38,18.32-3.23q18.18-3.21,15.24-19.86l-6.53-37.07q-2.08-11.77-14.12-13.53-3.45-.55-12.17,1Z"/><path class="cls-1" d="M735.57,840.82q9.09,51.6-51,62.33-60,10.58-69.12-41.15l-26.5-150.29q-9.1-51.59,50.9-62.17t69.25,41l5.83,33.06L673.08,731l-5.83-33.07q-2.93-16.53-21.12-13.45l-.3,0q-18,3.18-15.09,19.84l26.5,150.29q2.94,16.65,21.12,13.45t15.39-19.89l-10.16-57.61-18.18,3.21-6.18-35.07,60-10.58Z"/></g><path id="PlusGreen" class="cls-2" d="M353.57,558.88c-4.16-8.63-10.75-16.08-14.25-21.21,8.47,33.83,20,69.6,26,106.28,7.71,47.47,1.44,94-24.52,136-15.49,25.08-37.1,42.58-66.29,51.68Q254,715.23,233.5,599.19h.37q-26.46-150.11-53-300.48c7.66-.22,14.43-.63,21.2-.57,57,.46,101.52-28.47,116-75.56,12.06-39.2-11.61-70.75-52.57-70.06C202.17,153.59,149.38,216.47,160.12,279c8.87,51.62,19,103,28.16,154.61q8,45,15.9,90h-.35q37.54,212.7,75,425.41c1.25,7.1,3.22,14.08,4.85,21.11l3.84.16c1.28-2.79,2.72-5.52,3.81-8.39,25.53-67.2,51.53-134.23,76.4-201.67C393.22,691.18,385,624,353.57,558.88Z"/></svg>