<?xml version="1.0" encoding="utf-8"?>
<!-- Generator: Adobe Illustrator 16.0.0, SVG Export Plug-In . SVG Version: 6.00 Build 0)  -->
<!DOCTYPE svg PUBLIC "-//W3C//DTD SVG 1.1//EN" "http://www.w3.org/Graphics/SVG/1.1/DTD/svg11.dtd">
<svg version="1.1" id="Layer_1" xmlns="http://www.w3.org/2000/svg" xmlns:xlink="http://www.w3.org/1999/xlink" x="0px" y="0px"
	 width="200px" height="292px" viewBox="0 0 200 292" enable-background="new 0 0 200 292" xml:space="preserve">
<g>
	<g>
		<path fill="none" d="M200.4,292.32c-66.721,0-133.44,0-200.16,0c0-97.36,0-194.72,0-292.08c66.72,0,133.439,0,200.16,0
			C200.4,97.6,200.4,194.96,200.4,292.32z M65.045,264.47c-0.472,0.327-0.644,0.414-0.776,0.541c-1.612,1.553-1.67,3.514-1.2,5.466
			c1.859,7.712,7.172,11.958,14.524,13.853c3.83,0.986,7.616-0.081,11.312-1.166c6.208-1.823,10.693-5.706,13.14-11.679
			c0.92-2.244,1.188-4.755,1.796-7.326c-0.046,0.012,0.22-0.07,0.491-0.125c5.316-1.068,10.654-2.04,15.943-3.229
			c4.204-0.946,8.409-2.019,12.002-4.592c4.841-3.469,9.704-6.917,13.866-11.224c4.43-4.586,8.21-9.61,10.153-15.783
			c1.15-3.653,1.91-7.387,0.501-11.148c-0.684-1.827-1.53-3.602-2.428-5.335c-0.445-0.861-0.265-1.296,0.512-1.698
			c1.559-0.81,3.088-1.678,4.66-2.459c3.082-1.53,6.01-3.228,7.529-6.54c1.548-3.373,3.208-6.703,4.563-10.151
			c1.287-3.276,3.279-5.959,6.012-8.061c3.197-2.459,6.486-4.806,9.816-7.083c3.981-2.722,5.665-6.516,5.803-11.222
			c0.035-1.233,0.245-2.698,0.943-3.633c1.904-2.55,2.057-5.252,1.974-8.309c-0.197-7.268,0.111-14.548,0.068-21.823
			c-0.056-9.552-0.278-19.104-0.381-28.656c-0.064-5.999-0.026-11.998-0.062-17.997c-0.017-2.677-0.098-5.354-0.152-8.031
			c-0.093-4.594-0.228-9.188-0.261-13.782c-0.011-1.5,0.24-3.002,0.388-4.686c-1.86-0.137-3.663-0.502-5.413-0.332
			c-1.744,0.169-3.707,0.475-5.101,1.419c-4.561,3.09-9.016,6.362-13.296,9.829c-3.097,2.509-5.845,5.448-8.761,8.183
			c-4.312,4.043-9.344,5.743-15.274,4.975c-5.165-0.669-9.876-2.507-14.407-4.95c-0.451-0.244-0.92-0.56-1.407-0.616
			c-4.977-0.58-9.963-0.653-14.95-0.139c-1.677,0.173-3.347,0.409-5.303,0.652c0.37-0.493,0.567-0.731,0.739-0.988
			c2.644-3.949,5.459-7.795,7.877-11.877c2.782-4.696,4.509-9.873,5.685-15.196c0.565-2.558,1.307-5.223,1.107-7.771
			c-0.356-4.544-1.582-9.017-4.173-12.856c-2.027-3.003-4.326-5.854-6.748-8.552c-3.702-4.125-6.677-8.658-8.722-13.805
			c-0.188-0.475-0.422-0.933-0.842-1.854c-0.562,0.75-0.902,1.368-1.395,1.823c-0.673,0.622-0.937,1.229-0.791,2.189
			c0.228,1.495,0.289,3.024,0.307,4.541c0.053,4.514,0.036,9.028,0.073,13.542c0.033,4.037,0.146,8.074,0.148,12.111
			c0.006,12.718-0.023,25.436-0.038,38.155c-0.002,1.832-0.002,1.829-1.894,1.942c-0.398,0.024-0.795,0.075-1.192,0.12
			c-5.095,0.564-9.786-0.143-13.974-3.524c-2.753-2.223-5.854-4.029-8.869-5.911c-2.319-1.447-4.264-3.247-5.757-5.511
			c-1.517-2.301-2.98-4.639-4.389-7.008c-0.517-0.87-1.075-1.063-2.049-0.886c-2.824,0.514-5.66,1.204-8.509,1.299
			c-10.384,0.351-20.774,0.491-31.163,0.703c-6.314,0.129-12.629,0.242-18.943,0.375c-0.577,0.012-1.152,0.128-1.758,0.2
			C7.62,67.287,7.685,75.6,7.639,83.911c-0.027,4.912-0.368,9.824-0.365,14.735c0.006,8.435,0.271,16.87,0.241,25.304
			c-0.029,8.352-0.3,16.703-0.444,25.054c-0.1,5.796-0.187,11.592-0.242,17.389c-0.061,6.478-0.072,12.956-0.114,19.434
			c-0.058,8.836-0.134,17.672-0.153,26.508c0,0.381,0.399,0.93,0.759,1.114c1.383,0.71,2.812,1.338,4.25,1.933
			c3.517,1.454,7.146,2.21,10.986,1.852c1.864-0.173,3.764-0.315,5.618-0.15c3.725,0.333,7.152,1.708,10.24,3.774
			c4.698,3.143,8.922,6.767,11.131,12.205c1.762,4.339,4.51,8.043,7.278,11.783c6.303,8.519,14.717,13.943,24.586,17.292
			c4.646,1.577,9.544,1.871,14.398,2.307c1.578,0.141,3.153,0.302,4.804,0.461c-0.41,2.968-1.561,5.433-3.25,7.655
			c-2.564,3.376-5.922,5.792-9.579,7.846c-2.481,1.394-5.106,1.981-7.943,1.669c-4.422-0.486-8.069-2.511-11.001-5.758
			C65.915,273.077,63.849,269.454,65.045,264.47z"/>
		<path fill-rule="evenodd" clip-rule="evenodd" d="M65.045,264.47c-1.196,4.984,0.87,8.607,3.795,11.848
			c2.932,3.247,6.579,5.271,11.001,5.758c2.836,0.312,5.462-0.275,7.943-1.669c3.657-2.054,7.015-4.47,9.579-7.846
			c1.689-2.223,2.84-4.688,3.25-7.655c-1.651-0.159-3.227-0.32-4.804-0.461c-4.854-0.436-9.752-0.729-14.398-2.307
			c-9.869-3.349-18.283-8.773-24.586-17.292c-2.768-3.74-5.517-7.444-7.278-11.783c-2.208-5.438-6.433-9.062-11.131-12.205
			c-3.088-2.066-6.515-3.441-10.24-3.774c-1.854-0.165-3.754-0.022-5.618,0.15c-3.84,0.358-7.469-0.397-10.986-1.852
			c-1.438-0.595-2.866-1.223-4.25-1.933c-0.36-0.185-0.759-0.733-0.759-1.114c0.02-8.836,0.096-17.672,0.153-26.508
			c0.042-6.478,0.054-12.956,0.114-19.434c0.055-5.797,0.142-11.593,0.242-17.389c0.144-8.351,0.415-16.702,0.444-25.054
			c0.03-8.434-0.235-16.87-0.241-25.304c-0.003-4.912,0.338-9.823,0.365-14.735C7.685,75.6,7.62,67.287,6.604,58.872
			c0.606-0.071,1.181-0.188,1.758-0.2c6.314-0.134,12.629-0.246,18.943-0.375c10.388-0.212,20.779-0.353,31.163-0.703
			c2.849-0.096,5.685-0.786,8.509-1.299c0.974-0.177,1.532,0.017,2.049,0.886c1.408,2.369,2.872,4.707,4.389,7.008
			c1.493,2.264,3.438,4.063,5.757,5.511c3.015,1.882,6.116,3.688,8.869,5.911c4.188,3.381,8.879,4.089,13.974,3.524
			c0.397-0.044,0.794-0.096,1.192-0.12c1.892-0.113,1.892-0.11,1.894-1.942c0.015-12.719,0.044-25.437,0.038-38.155
			c-0.002-4.037-0.115-8.074-0.148-12.111c-0.037-4.514-0.021-9.028-0.073-13.542c-0.018-1.517-0.079-3.046-0.307-4.541
			c-0.146-0.961,0.118-1.568,0.791-2.189c0.492-0.455,0.833-1.073,1.395-1.823c0.42,0.921,0.653,1.379,0.842,1.854
			c2.045,5.147,5.02,9.679,8.722,13.805c2.422,2.699,4.721,5.549,6.748,8.552c2.591,3.84,3.816,8.312,4.173,12.856
			c0.199,2.549-0.542,5.213-1.107,7.771c-1.176,5.323-2.902,10.5-5.685,15.196c-2.418,4.082-5.233,7.928-7.877,11.877
			c-0.172,0.256-0.369,0.495-0.739,0.988c1.956-0.243,3.626-0.479,5.303-0.652c4.987-0.514,9.974-0.441,14.95,0.139
			c0.487,0.057,0.956,0.373,1.407,0.616c4.531,2.442,9.242,4.28,14.407,4.95c5.931,0.768,10.963-0.932,15.274-4.975
			c2.916-2.734,5.664-5.673,8.761-8.183c4.28-3.467,8.735-6.739,13.296-9.829c1.394-0.944,3.356-1.25,5.101-1.419
			c1.75-0.17,3.553,0.195,5.413,0.332c-0.147,1.684-0.398,3.186-0.388,4.686c0.033,4.594,0.168,9.188,0.261,13.782
			c0.055,2.677,0.136,5.354,0.152,8.031c0.035,5.999-0.003,11.999,0.062,17.997c0.103,9.553,0.325,19.104,0.381,28.656
			c0.043,7.275-0.266,14.555-0.068,21.823c0.083,3.057-0.069,5.759-1.974,8.309c-0.698,0.935-0.908,2.399-0.943,3.633
			c-0.138,4.706-1.821,8.5-5.803,11.222c-3.33,2.277-6.619,4.624-9.816,7.083c-2.732,2.102-4.725,4.784-6.012,8.061
			c-1.355,3.448-3.016,6.778-4.563,10.151c-1.52,3.312-4.447,5.01-7.529,6.54c-1.572,0.781-3.102,1.649-4.66,2.459
			c-0.776,0.402-0.957,0.837-0.512,1.698c0.897,1.733,1.744,3.508,2.428,5.335c1.409,3.762,0.649,7.495-0.501,11.148
			c-1.943,6.173-5.724,11.197-10.153,15.783c-4.162,4.307-9.025,7.755-13.866,11.224c-3.593,2.573-7.798,3.646-12.002,4.592
			c-5.289,1.189-10.627,2.161-15.943,3.229c-0.271,0.055-0.537,0.137-0.491,0.125c-0.608,2.571-0.876,5.082-1.796,7.326
			c-2.447,5.973-6.932,9.855-13.14,11.679c-3.695,1.085-7.482,2.152-11.312,1.166c-7.353-1.895-12.666-6.141-14.524-13.853
			c-0.47-1.952-0.412-3.913,1.2-5.466C64.401,264.884,64.573,264.797,65.045,264.47z M133.362,202.274
			c0.016-0.165,0.031-0.33,0.047-0.495c1.975-0.021,3.975-0.255,5.918-0.02c5.148,0.624,9.254,3.278,12.552,7.049
			c1.943-0.994,3.761-1.911,5.566-2.852c1.857-0.968,3.629-2.063,4.777-3.892c2.392-3.809,4.281-7.841,5.437-12.21
			c0.216-0.816,0.644-1.637,1.168-2.302c3.457-4.381,7.656-7.914,12.464-10.741c1.064-0.626,2.115-1.308,3.057-2.101
			c3.115-2.621,5.04-5.798,4.808-10.084c-0.062-1.132,0.389-2.356,0.848-3.435c0.496-1.165,1.234-2.237,1.95-3.294
			c0.584-0.86,0.848-1.731,0.835-2.787c-0.112-9.316-0.187-18.632-0.255-27.948c-0.022-3.159,0.038-6.318,0.004-9.476
			c-0.072-6.834-0.224-13.669-0.259-20.504c-0.021-4.276,0.215-8.554,0.146-12.829c-0.082-5.152-0.364-10.301-0.561-15.451
			c-0.103-2.694-0.207-5.389-0.319-8.304c-0.664,0.378-1.112,0.614-1.541,0.882c-8.149,5.083-15.482,11.167-22.239,17.983
			c-4.476,4.516-9.788,7.276-16.336,7.066c-5.089-0.164-9.908-1.446-14.213-4.145c-2.256-1.415-4.47-2.086-7.138-2.044
			c-6.999,0.111-13.987,0.139-20.829,1.904c-2.12,0.547-2.235,0.671-2.253,2.919c-0.016,1.96,0.049,3.92,0.001,5.879
			c-0.04,1.695-0.556,3.216-1.995,4.538c0-4.406,0-8.565,0-12.794c-0.219,0.083-0.342,0.097-0.421,0.163
			c-2.481,2.081-4.977,4.145-7.429,6.258c-2.16,1.861-4.185,3.874-5.481,6.45c-0.597,1.188-1.252,0.615-1.922,0.293
			c-0.773-0.371-0.894-1.012-0.41-1.687c0.488-0.68,0.981-1.389,1.605-1.933c2.951-2.57,5.948-5.087,8.927-7.624
			c0.403-0.343,0.803-0.692,1.32-1.138c-0.421-0.13-0.605-0.214-0.798-0.241c-0.316-0.045-0.637-0.077-0.956-0.075
			c-4.864,0.033-9.122-1.547-12.967-4.535c-2.104-1.636-4.51-2.877-6.691-4.422c-2.145-1.519-4.376-3-6.2-4.859
			c-1.708-1.743-3.034-3.897-4.339-5.988c-1.176-1.884-2.66-2.803-4.88-2.417c-0.196,0.034-0.397,0.05-0.596,0.055
			c-10.788,0.243-21.577,0.47-32.364,0.729c-6.391,0.153-12.781,0.361-19.173,0.519c-0.687,0.017-1.023,0.185-1.027,0.939
			c-0.005,0.957-0.178,1.913-0.177,2.869c0,9.634,0.035,19.269,0.033,28.903c-0.002,7.793,0.008,15.586-0.078,23.379
			c-0.102,9.232-0.334,18.463-0.446,27.696c-0.107,8.836-0.153,17.673-0.186,26.51c-0.045,12.039-0.063,24.078-0.066,36.117
			c0,2.436-0.487,1.99,1.966,2.583c2.854,0.69,5.779,1.165,8.7,1.473c1.8,0.189,3.661-0.261,5.48-0.16
			c7.325,0.405,13.471,3.385,18.458,8.755c0.25,0.27,0.391,0.64,0.583,0.963c-0.287-2.894-0.936-5.496-1.25-8.138
			c-0.567-4.758-1.046-9.532-1.342-14.313c-0.174-2.818-0.035-5.671,0.175-8.492c0.121-1.635,0.819-3.151,2.286-4.472
			c0,3.239-0.033,6.197,0.009,9.155c0.05,3.556-0.274,7.19,0.35,10.649c1.038,5.755,2.755,11.384,4.077,17.092
			c0.529,2.286,1.797,3.748,3.968,4.477c4.496,1.509,8.942,3.207,13.512,4.445c6.146,1.667,10.694,5.337,14.018,10.552
			c4.43,6.949,11.04,9.418,18.829,9.749c0.664,0.028,0.928-0.242,0.973-0.892c0.147-2.111,0.431-4.219,0.481-6.332
			c0.136-5.675,0.161-11.353,0.269-17.028c0.038-1.969,0.188-3.936,0.287-5.903c0.135-0.037,0.269-0.075,0.403-0.111
			c0.378,0.741,1.083,1.482,1.085,2.227c0.026,7.315-0.067,14.631-0.122,21.947c-0.012,1.651-0.001,3.305-0.001,5.116
			c3.883-1.563,7.205-3.311,9.388-6.664c0.72-1.105,1.518-2.159,2.23-3.269c1.703-2.649,3.75-4.967,6.286-6.858
			c2.339-1.745,4.706-3.467,6.916-5.367c2.202-1.894,4.471-3.798,6.274-6.048c3.987-4.973,8.369-9.453,13.777-12.875
			c0.362-0.229,0.682-0.529,1.186-0.926c-3.501-3.338-6.946-6.431-12.026-6.668C136.037,203.349,134.555,203.296,133.362,202.274z
			 M103.161,261.612c3.52-0.729,6.921-1.392,10.303-2.145c6.242-1.392,12.402-2.961,17.95-6.391
			c9.238-5.711,16.857-12.88,21.549-22.862c2.799-5.957,1.947-11.597-1.226-17.119c-0.173,0.048-0.296,0.059-0.394,0.113
			c-0.312,0.177-0.62,0.363-0.922,0.557c-3.85,2.475-6.962,5.742-9.83,9.249c-2.434,2.976-4.886,5.919-7.972,8.261
			c-1.56,1.185-3.069,2.438-4.662,3.576c-3.98,2.846-7.357,6.245-9.959,10.413c-1.036,1.659-2.19,3.247-3.349,4.824
			c-0.389,0.528-0.896,1.021-1.453,1.364c-3.094,1.907-6.223,3.758-9.328,5.647c-0.28,0.17-0.661,0.471-0.677,0.729
			C103.121,259.051,103.161,260.278,103.161,261.612z M107.166,77.531c0.421-0.312,0.562-0.381,0.654-0.491
			c6.246-7.431,11.266-15.616,14.719-24.689c1.951-5.13,2.562-10.469,1.07-15.878c-1.131-4.099-3.581-7.468-6.158-10.739
			c-2.993-3.798-6.057-7.54-9.079-11.314c-0.409-0.512-0.759-1.072-1.206-1.712C107.166,34.322,107.166,55.765,107.166,77.531z
			 M52.45,232.373c-0.06,0.074-0.12,0.147-0.18,0.222c0.17,0.353,0.33,0.711,0.511,1.058c3.238,6.2,7.812,11.31,13.202,15.663
			c3.126,2.524,6.344,5.06,9.866,6.942c5.904,3.157,12.423,4.269,19.108,4.233c2.1-0.011,4.198-0.18,6.422-0.281
			c-0.141-1.051-0.25-1.868-0.366-2.737c-1.252-0.16-2.438-0.292-3.619-0.466c-7.059-1.035-13.091-3.531-17.071-10.084
			c-3.139-5.167-7.879-8.593-13.948-10.017c-3.251-0.764-6.436-1.823-9.625-2.833C55.284,233.609,53.881,232.946,52.45,232.373z"/>
		<path fill-rule="evenodd" clip-rule="evenodd" fill="none" d="M133.362,202.274c1.192,1.021,2.675,1.074,4.14,1.144
			c5.08,0.237,8.525,3.33,12.026,6.668c-0.504,0.396-0.823,0.696-1.186,0.926c-5.408,3.422-9.79,7.902-13.777,12.875
			c-1.804,2.25-4.072,4.154-6.274,6.048c-2.21,1.9-4.577,3.622-6.916,5.367c-2.536,1.892-4.583,4.209-6.286,6.858
			c-0.713,1.109-1.511,2.163-2.23,3.269c-2.183,3.354-5.505,5.101-9.388,6.664c0-1.812-0.011-3.465,0.001-5.116
			c0.055-7.316,0.148-14.632,0.122-21.947c-0.002-0.744-0.707-1.485-1.085-2.227c-0.135,0.036-0.269,0.074-0.403,0.111
			c-0.099,1.968-0.249,3.935-0.287,5.903c-0.107,5.676-0.133,11.354-0.269,17.028c-0.051,2.113-0.334,4.221-0.481,6.332
			c-0.045,0.649-0.31,0.92-0.973,0.892c-7.789-0.331-14.399-2.8-18.829-9.749c-3.324-5.215-7.871-8.885-14.018-10.552
			c-4.57-1.238-9.016-2.937-13.512-4.445c-2.171-0.729-3.438-2.19-3.968-4.477c-1.322-5.708-3.039-11.337-4.077-17.092
			c-0.624-3.459-0.299-7.094-0.35-10.649c-0.042-2.958-0.009-5.916-0.009-9.155c-1.466,1.32-2.165,2.837-2.286,4.472
			c-0.209,2.821-0.349,5.674-0.175,8.492c0.296,4.781,0.775,9.556,1.342,14.313c0.315,2.642,0.963,5.244,1.25,8.138
			c-0.192-0.323-0.333-0.693-0.583-0.963c-4.987-5.37-11.133-8.35-18.458-8.755c-1.819-0.101-3.68,0.35-5.48,0.16
			c-2.921-0.308-5.846-0.782-8.7-1.473c-2.453-0.593-1.966-0.147-1.966-2.583c0.003-12.039,0.021-24.078,0.066-36.117
			c0.033-8.837,0.079-17.674,0.186-26.51c0.112-9.232,0.345-18.463,0.446-27.696c0.086-7.792,0.076-15.586,0.078-23.379
			c0.002-9.634-0.032-19.269-0.033-28.903c0-0.956,0.172-1.912,0.177-2.869c0.004-0.754,0.341-0.922,1.027-0.939
			c6.392-0.158,12.782-0.366,19.173-0.519c10.788-0.258,21.576-0.486,32.364-0.729c0.199-0.005,0.4-0.021,0.596-0.055
			c2.22-0.386,3.704,0.533,4.88,2.417c1.305,2.09,2.63,4.245,4.339,5.988c1.824,1.86,4.056,3.341,6.2,4.859
			c2.181,1.544,4.586,2.786,6.691,4.422c3.845,2.987,8.103,4.568,12.967,4.535c0.318-0.002,0.64,0.029,0.956,0.075
			c0.193,0.027,0.377,0.111,0.798,0.241c-0.518,0.446-0.917,0.795-1.32,1.138c-2.979,2.537-5.976,5.054-8.927,7.624
			c-0.624,0.543-1.118,1.252-1.605,1.933c-0.484,0.675-0.364,1.316,0.41,1.687c0.67,0.321,1.325,0.894,1.922-0.293
			c1.296-2.576,3.322-4.588,5.481-6.45c2.452-2.114,4.948-4.178,7.429-6.258c0.079-0.066,0.202-0.081,0.421-0.163
			c0,4.229,0,8.388,0,12.794c1.439-1.322,1.955-2.843,1.995-4.538c0.048-1.959-0.017-3.919-0.001-5.879
			c0.018-2.249,0.133-2.373,2.253-2.919c6.842-1.765,13.83-1.793,20.829-1.904c2.668-0.042,4.882,0.629,7.138,2.044
			c4.305,2.699,9.124,3.981,14.213,4.145c6.548,0.21,11.86-2.55,16.336-7.066c6.757-6.816,14.09-12.899,22.239-17.983
			c0.429-0.268,0.877-0.503,1.541-0.882c0.112,2.916,0.217,5.61,0.319,8.304c0.196,5.15,0.479,10.299,0.561,15.451
			c0.068,4.274-0.168,8.553-0.146,12.829c0.035,6.835,0.187,13.669,0.259,20.504c0.034,3.158-0.026,6.317-0.004,9.476
			c0.068,9.316,0.143,18.632,0.255,27.948c0.013,1.056-0.251,1.927-0.835,2.787c-0.716,1.057-1.454,2.129-1.95,3.294
			c-0.459,1.078-0.909,2.303-0.848,3.435c0.232,4.286-1.692,7.463-4.808,10.084c-0.941,0.793-1.992,1.475-3.057,2.101
			c-4.808,2.827-9.007,6.36-12.464,10.741c-0.524,0.665-0.952,1.485-1.168,2.302c-1.155,4.369-3.045,8.401-5.437,12.21
			c-1.148,1.828-2.92,2.924-4.777,3.892c-1.806,0.94-3.623,1.857-5.566,2.852c-3.298-3.771-7.403-6.425-12.552-7.049
			c-1.943-0.235-3.943-0.001-5.918,0.02C133.394,201.944,133.378,202.109,133.362,202.274z M72.922,114.461
			c-0.638-0.823-0.964-1.337-1.381-1.761c-1.07-1.088-1.321-2.316-1.114-3.829c0.254-1.853,0.322-3.745,0.294-5.618
			c-0.023-1.637-0.445-3.212-1.666-4.574c-1.049,1.199-2.038,2.329-3.027,3.459c0.284,0.459,0.481,0.857,0.751,1.197
			c0.674,0.846,0.976,1.748,0.905,2.866c-0.126,1.992-0.097,3.993-0.146,5.99c-0.006,0.247-0.092,0.492-0.154,0.807
			c-1.327-1.058-2.217-2.125-1.948-3.899c0.184-1.211,0.096-2.477,0.02-3.712c-0.135-2.206-0.526-4.351-1.996-6.32
			c-0.745,0.943-1.463,1.788-2.092,2.695c-0.155,0.224-0.114,0.69,0.002,0.978c1.137,2.818,1.267,5.752,1.026,8.724
			c-0.067,0.83-0.266,1.648-0.404,2.472c-0.165,0.022-0.329,0.044-0.494,0.067c-0.435-1.128-1.107-2.227-1.251-3.391
			c-0.264-2.131-0.208-4.3-0.299-6.453c-0.082-1.944-0.302-3.851-1.692-5.68c-0.774,0.857-1.395,1.649-2.126,2.318
			c-0.581,0.531-0.627,0.989-0.268,1.65c0.91,1.671,1.393,3.432,1.313,5.381c-0.063,1.549,0.018,3.127,0.256,4.658
			c0.258,1.654,0.772,3.267,1.217,5.07c1.818-1.188,3.311-2.163,4.823-3.152c0.346,0.368,0.673,0.622,0.88,0.952
			c0.626,0.998,1.364,1.089,2.388,0.558c0.768-0.399,1.651-0.577,2.483-0.853c0.084,0.116,0.168,0.231,0.252,0.347
			c-0.369,0.53-0.648,1.162-1.121,1.573c-2.17,1.884-4.502,3.594-6.576,5.576c-4.129,3.948-8.374,7.843-11.036,13.021
			c-2.208,4.294-4.392,8.61-6.331,13.029c-1.916,4.367-2.045,9.062-1.86,13.92c0.923,0.05,1.799,0.098,2.751,0.149
			c-0.753-4.123-0.458-8.036,0.938-11.744c1.418-3.763,3.113-7.433,4.882-11.048c2.782-5.685,6.47-10.67,11.285-14.895
			C66.115,121.736,69.409,118.012,72.922,114.461z M25.137,117.339c2.643-1.099,5.297-0.924,7.958-0.461
			c1.219,0.212,2.419,0.551,3.644,0.703c0.464,0.058,1.114-0.102,1.439-0.413c2.927-2.805,4.499-6.255,4.674-10.317
			c0.092-2.156-0.291-4.061-2.714-4.806c-0.075-0.023-0.144-0.068-0.214-0.107c-1.774-0.988-1.815-1.005-1.001-2.913
			c0.719-1.686,0.638-3.163-0.78-4.456c-1.234-1.126-2.442-2.281-3.632-3.395c-2.76,1.546-4.758,3.395-5.323,6.701
			c-0.658,3.841-0.576,7.628-0.231,11.455c0.144,1.592-0.001,3.115-1.051,4.428c0.285-7.273-1.637-14.721,2.012-21.718
			c-1.705-0.149-3.253-0.116-4.717-0.45c-2.633-0.6-4.388,0.567-5.854,2.505c-1.349,1.783-1.989,3.754-1.442,6.363
			c0.798-1.095,1.493-1.909,2.025-2.819c0.536-0.916,0.91-1.926,1.347-2.879c3.604,0.38,3.979,0.827,3.628,4.256
			c-0.024,0.238-0.102,0.484-0.067,0.712c0.142,0.918-0.282,1.427-1.033,1.932c-2.211,1.487-3.926,3.438-5.024,5.924
			c1.087-0.587,2.061-1.32,3.096-1.952c1.27-0.776,2.253-0.487,2.779,0.894c0.349,0.916,0.551,1.92,0.63,2.9
			c0.206,2.562-0.728,4.852-2.024,7.149c0.712-0.075,1.281-0.135,1.879-0.198C25.137,116.737,25.137,116.998,25.137,117.339z
			 M79.212,134.452c0,0.233,0.039,0.401-0.006,0.542c-1.607,5.144-3.164,10.309-5.917,14.997c-0.311,0.528-0.787,0.987-1.266,1.383
			c-1.628,1.347-3.344,2.592-4.918,3.996c-0.72,0.644-1.188,1.569-1.77,2.367c1.712-0.754,3.197-1.686,4.679-2.62
			c1.429-0.901,2.929-0.979,4.469-0.348c0.959,0.393,1.889,0.858,2.853,1.237c0.34,0.134,0.871,0.285,1.097,0.123
			c0.95-0.682,1.818-1.478,2.845-2.341c-2.01-1.147-3.799-2.17-5.659-3.232c0.705-1.516,1.333-2.982,2.08-4.386
			c0.165-0.31,0.742-0.541,1.141-0.56c1.195-0.059,2.396,0.015,3.596,0.019c2.328,0.007,2.297,0.009,2.825,2.244
			c0.595,2.52,1.144,5.058,1.917,7.524c0.595,1.896,2.087,2.271,3.667,1.052c1.027-0.791,1.937-1.733,2.899-2.608
			c-0.076-0.125-0.152-0.251-0.229-0.376c-0.703,0-1.414-0.062-2.109,0.015c-0.958,0.106-1.479-0.223-1.713-1.184
			c-0.846-3.486-1.718-6.965-2.615-10.438c-0.887-3.434-1.811-6.858-2.727-10.285c-0.175-0.655-0.502-0.913-1.295-0.838
			c-2.105,0.198-4.232,0.381-6.339,0.292c-2.762-0.117-5.714,2.355-6.411,5.195c-0.389,1.586-0.27,3.06,0.805,4.496
			c1.18-0.769,2.294-1.496,3.438-2.24c-0.356-0.755-0.651-1.362-0.93-1.977c-0.291-0.641-0.566-1.29-0.898-2.049
			C74.988,134.452,77.08,134.452,79.212,134.452z M117.497,105.324c0.164,0.594,0.26,1.017,0.398,1.425
			c0.662,1.961,1.123,4.025,2.046,5.856c2.367,4.695,7.269,5.982,11.771,3.278c4.02-2.416,6.145-7.506,5.166-12.375
			c-0.577-2.872-1.272-3.437-4.242-3.44c-0.159,0-0.323-0.004-0.478,0.03c-1.423,0.311-2.844,0.63-4.408,0.979
			c0.279-1.435,0.562-2.892,0.854-4.396c0.886,0.234,1.571,0.526,2.273,0.575c1.086,0.075,2.235,0.182,3.262-0.089
			c1.166-0.309,1.344-0.97,0.577-1.875c-1.043-1.232-2.264-2.313-3.436-3.486c-0.754,0.656-1.408,1.225-1.991,1.733
			c-1.032-0.207-1.229-1.827-2.463-1.254c-0.896,0.417-1.72,1.002-2.535,1.57c-0.421,0.292-0.813,0.667-1.115,1.081
			c-1.104,1.514-2.125,3.092-3.262,4.581c-0.506,0.663-1.128,1.324-1.844,1.726c-2.454,1.375-3.858,3.447-4.64,6.303
			C114.896,106.743,116.144,106.063,117.497,105.324z M176.622,100.983c0.137,0.016,0.273,0.032,0.411,0.048
			c0,1.506,0.055,3.015-0.013,4.518c-0.115,2.562-0.282,5.125,0.8,7.547c1.008,2.257,1.946,2.575,4.104,1.449
			c0.73-0.381,1.436-0.812,2.274-1.29c-0.842-0.67-1.563-1.223-2.261-1.805c-1.144-0.953-2.019-2.072-1.977-3.659
			c0.033-1.276,0.161-2.551,0.166-3.826c0.005-1.304,0.479-2.361,1.259-3.392c0.524-0.692,0.776-1.591,1.191-2.485
			c-2.294-0.433-4.034,0.314-5.718,1.287c-2.119,1.225-2.133,1.249-3.979-0.245c-0.551-0.446-0.965-0.552-1.562-0.084
			c-0.71,0.556-1.503,1.003-2.297,1.521c-0.826-0.937-1.582-1.795-2.521-2.86c-2.062,1.872-4.049,3.648-5.991,5.472
			c-0.238,0.223-0.359,0.708-0.329,1.054c0.188,2.188,0.39,4.376,0.673,6.554c0.267,2.057,0.723,4.072,1.994,5.926
			c2.476-1.939,5.632-3.009,6.627-6.459c-1.538,1.01-3.075,2.021-4.752,3.123c-0.297-1.734-0.612-3.29-0.798-4.86
			c-0.044-0.373,0.249-0.898,0.55-1.179c1.516-1.421,3.084-2.787,4.64-4.166c0.4-0.355,0.819-0.688,1.277-1.071
			c1.411,1.976,1.362,4.034,1.133,6.121c-0.166,1.507-0.413,3.009-0.507,4.52c-0.036,0.586,0.076,1.34,0.429,1.757
			c0.546,0.644,1.355,1.064,2.082,1.601c1.073-0.884,2.068-1.706,3.142-2.59c-0.826-0.57-1.516-0.983-2.125-1.493
			c-0.259-0.217-0.494-0.636-0.492-0.961c0.01-1.396,0.063-2.796,0.19-4.187C174.443,104.669,174.809,102.516,176.622,100.983z
			 M87.476,173.99c0.45,1.179,1.154,2.326,1.299,3.541c0.331,2.76,0.375,5.553,0.564,8.331c0.03,0.445,0.063,1.021,0.336,1.296
			c0.781,0.783,1.687,1.443,2.543,2.151c0.389-0.462,0.699-0.882,1.061-1.25c0.88-0.895,0.948-1.719,0.276-2.875
			c-0.621-1.067-1.042-2.362-1.149-3.592c-0.182-2.102-0.031-4.229-0.063-6.346c-0.006-0.402-0.091-1.006-0.354-1.167
			c-1.329-0.816-1.37-2.134-1.529-3.431c-0.034-0.282-0.096-0.562-0.212-1.227c-1.333,1.489-2.449,2.735-3.649,4.077
			c-1.206-1.376-2.245-2.562-3.475-3.966c-1.105,1.181-2.123,2.268-2.898,3.095c-1.083-0.965-2.102-1.873-3.179-2.833
			c-0.858,1.064-1.553,1.927-2.267,2.813c1.418,1.724,1.98,3.653,2.04,5.737c0.046,1.598-0.029,3.199,0.041,4.795
			c0.095,2.162,0.417,4.273,2.009,6.073c1.033-0.867,1.995-1.677,2.943-2.473c-3.271-5.151-2.707-10.745-0.196-13.484
			c0.526,1.447,1.201,2.692,1.405,4.01c0.298,1.922,0.229,3.898,0.37,5.847c0.147,2.02,0.318,4.048,1.775,5.785
			c1.032-0.895,2.011-1.743,2.979-2.583C85.72,182.918,85.372,178.176,87.476,173.99z M56.516,172.242
			c0.501,0.452,0.875,0.877,1.33,1.181c1.03,0.687,1.375,1.574,1.329,2.827c-0.112,2.995-0.079,5.996-0.072,8.995
			c0.001,0.406,0.054,0.941,0.306,1.197c0.862,0.874,1.823,1.65,2.84,2.546c0.88-1.102,1.689-2.115,2.807-3.514
			c-0.958-0.793-1.917-1.521-2.788-2.342c-0.31-0.291-0.608-0.822-0.575-1.215c0.173-2.022,0.382-4.05,0.734-6.048
			c0.163-0.922,0.68-1.782,1.036-2.67c0.148,0.013,0.296,0.026,0.444,0.04c0.314,1.013,0.815,2.01,0.903,3.042
			c0.195,2.304,0.181,4.626,0.257,6.94c0.069,2.085,0.56,4.009,2.135,5.611c1.192-0.791,2.344-1.555,3.559-2.359
			c-0.581-0.795-1.119-1.48-1.601-2.205c-0.505-0.76-1.332-1.543-1.362-2.341c-0.1-2.648,0.096-5.309,0.179-7.965
			c0.12-0.034,0.24-0.069,0.36-0.104c0.514,0.425,0.997,0.895,1.547,1.265c0.953,0.641,1.295,1.441,1.22,2.62
			c-0.122,1.911-0.105,3.839-0.009,5.753c0.097,1.918,0.565,3.759,1.796,5.463c1.13-1.007,2.181-1.943,3.264-2.91
			c-1.496-1.578-2.258-3.313-2.326-5.301c-0.054-1.591-0.168-3.217,0.082-4.773c0.432-2.681-1.292-4.128-2.794-5.822
			c-0.907,0.757-1.729,1.442-2.552,2.13c-1.029-0.739-1.989-1.429-2.975-2.138c-0.963,0.894-1.833,1.701-2.724,2.527
			c-1.271-1.146-2.468-2.228-3.709-3.347C58.216,170.365,57.396,171.271,56.516,172.242z M68.254,201.685
			c0.473-0.755,0.951-1.351,1.228-2.027c0.155-0.38,0.159-1.062-0.08-1.323c-1.688-1.854-3.458-3.633-5.296-5.534
			c-1.001,1.259-1.845,2.314-2.681,3.375c-1.306,1.657-2.01,3.489-1.883,5.653c0.2,3.429,0.294,6.864,0.439,10.296
			c0.038,0.885-0.252,1.562-0.918,2.21c-1.671,1.627-3.195,3.392-4.333,5.625c0.275-0.083,0.411-0.084,0.485-0.152
			c2.663-2.429,5.643-2.599,8.841-1.261c0.072,0.03,0.157,0.031,0.235,0.045c4.196,0.77,5.854-0.006,7.9-3.809
			c0.736-1.368,1.398-2.784,1.984-4.224c0.256-0.628,0.403-1.392,0.312-2.055C73.995,204.914,72.375,202.251,68.254,201.685z
			 M96.638,123.026c0.117,0.102,0.234,0.204,0.351,0.305c0.716-0.345,1.495-0.601,2.134-1.054c1.317-0.936,2.534-0.919,3.987-0.211
			c2.736,1.333,5.146,0.322,7.274-1.486c1.741-1.479,2.289-3.339,1.61-5.606c-1.084-3.616-1.664-7.315-1.407-11.111
			c0.061-0.908,0.477-2.061,0.073-2.661c-0.451-0.673-1.648-0.841-2.518-1.237c-4.557-2.076-4.556-2.076-8.199,1.514
			c-0.057,0.056-0.137,0.102-0.167,0.169c-0.216,0.479-0.594,0.959-0.602,1.444c-0.053,3.317-0.034,6.635-0.02,9.953
			c0.001,0.343,0.014,0.778,0.209,1.012c0.938,1.121,1.942,2.187,2.938,3.29c1.855-1.338,3.6-2.596,5.499-3.967
			c0.603,2.076,1.17,4.029,1.808,6.226c-1.997-0.427-3.694-0.821-5.404-1.148c-1.651-0.316-3.347-0.399-4.619,0.911
			C98.5,120.486,97.613,121.799,96.638,123.026z M137.355,172.952c0.146,0.212,0.229,0.41,0.374,0.53
			c1.706,1.409,2.277,3.129,1.503,5.251c-0.107,0.294-0.121,0.628-0.151,0.945c-0.277,2.979-0.07,5.835,2.032,8.237
			c0.562,0.644,1.016,0.835,1.785,0.228c1.371-1.083,2.839-2.045,4.322-3.098c0.146,0.316,0.266,0.521,0.337,0.74
			c0.32,0.986,0.68,1.964,0.925,2.97c0.273,1.116-1.241,2.406-2.344,2.066c-1.6-0.492-3.216-0.934-4.806-1.458
			c-1.472-0.484-2.661-0.104-3.638,1.036c-1.055,1.231-2.086,2.482-3.29,3.918c0.496,0,0.584,0.024,0.648-0.004
			c0.294-0.126,0.608-0.228,0.866-0.408c2.014-1.41,4.065-1.596,6.206-0.279c0.332,0.204,0.751,0.387,1.126,0.379
			c1.087-0.021,2.357,0.194,3.225-0.284c3.786-2.09,5.243-5.72,4.326-9.895c-0.684-3.116-1.479-6.233-0.855-9.478
			c0.049-0.252,0.006-0.586-0.128-0.798c-0.81-1.275-1.659-2.527-2.504-3.801c-3.024,2.981-3.125,1.962-1.013,5.911
			c0.15,0.282,0.348,0.54,0.486,0.826c0.118,0.246,0.264,0.519,0.259,0.777c-0.026,1.317-0.034,2.641-0.17,3.949
			c-0.136,1.3-0.624,2.466-1.69,3.332c-0.677,0.549-1.285,0.695-1.721-0.206c-0.516-1.068-1.106-2.133-1.401-3.268
			c-0.657-2.518,0.028-4.99,0.511-7.459c0.07-0.355,0.136-0.886-0.057-1.089c-0.891-0.941-1.873-1.796-2.89-2.743
			C138.8,170.939,138.082,171.938,137.355,172.952z M145.678,115.544c-1.912-3.753-2.275-10.068-0.786-12.989
			c1.156,0.777,2.308,1.551,3.469,2.333c0.773-0.66,1.481-1.265,2.19-1.87c0.144,0.04,0.286,0.079,0.43,0.118
			c0,0.658,0.055,1.32-0.01,1.971c-0.207,2.095-0.628,4.184-0.646,6.277c-0.019,2.186,0.768,4.204,2.269,5.975
			c2.309-1.607,4.773-2.92,6.602-5.57c-1.86,0.729-3.39,1.328-5.007,1.961c-0.275-1.328-0.485-2.501-0.769-3.657
			c-0.18-0.736-0.021-1.224,0.548-1.785c1.905-1.876,3.738-3.827,5.547-5.796c0.247-0.269,0.411-0.931,0.253-1.199
			c-0.682-1.161-1.498-2.242-2.342-3.462c-1.021,0.786-1.976,1.494-2.899,2.239c-0.775,0.625-1.474,1.356-2.286,1.926
			c-0.683,0.479-1.367,0.655-1.958-0.339c-0.642-1.079-1.488-2.035-2.267-3.073c-1.588,1.093-3.052,2.103-4.57,3.149
			c-0.652-1.366-1.228-2.572-1.855-3.887c-0.887,0.802-1.614,1.548-2.432,2.175c-0.994,0.762-0.966,1.459-0.147,2.328
			c1.519,1.61,2.307,3.501,2.099,5.764c-0.096,1.032-0.159,2.076-0.109,3.108c0.104,2.134,0.107,4.304,1.314,6.316
			C143.454,116.875,144.539,116.227,145.678,115.544z M112.139,201.772c-1.028,0.929-1.982,1.834-2.985,2.681
			c-0.665,0.561-0.879,1.217-0.928,2.08c-0.157,2.785-0.426,5.564-0.63,8.347c-0.019,0.248,0.041,0.604,0.206,0.748
			c1.291,1.126,2.555,2.299,3.95,3.283c1.123,0.792,2.354,0.763,3.564-0.096c1.722-1.222,3.12-2.755,3.634-4.765
			c0.557-2.176,0.878-4.449,0.985-6.695c0.188-3.961-1.028-7.278-4.812-9.301c-1.058-0.565-1.917-1.547-2.775-2.427
			c-0.74-0.76-0.938-1.692-0.54-2.758c0.4-1.074,0.68-2.193,1.074-3.498C107.373,192.646,107.221,195.941,112.139,201.772z
			 M101.206,172.294c1.563,1.569,2.373,3.251,2.64,5.155c0.381,2.732-0.2,5.176-2.476,6.977c-0.279,0.221-0.739,0.424-1.053,0.354
			c-0.843-0.189-1.945-1.846-1.969-2.735c-0.068-2.515-0.074-5.034-0.249-7.542c-0.115-1.657-0.625-3.24-1.686-4.653
			c-0.288,0.319-0.48,0.577-0.716,0.788c-1.348,1.199-1.485,2.568-1.1,4.325c0.527,2.395,1.093,4.94,0.797,7.316
			c-0.375,3.009,1.172,4.68,2.985,6.569c1.733-1.224,3.413-2.41,5.098-3.601c0.938,1.091,1.819,2.116,2.801,3.259
			c1.156-0.972,2.245-1.886,3.395-2.853c-0.899-0.885-1.758-1.665-2.532-2.521c-0.318-0.352-0.656-0.873-0.642-1.307
			c0.087-2.673,0.211-5.349,0.454-8.012c0.099-1.076-0.019-1.89-1.067-2.351c-1.375-0.604-1.393-1.61-1.148-2.935
			c0.402-2.188,0.691-4.415,0.791-6.636c0.077-1.714-0.672-3.186-2.344-4.365c-0.153,3.729-0.355,7.197-0.411,10.669
			C102.75,169.759,103.088,171.349,101.206,172.294z M38.489,163.493c-2.054-1.811-4.766-1.905-6.458-0.093
			c-1.652,1.771-3.004,3.82-4.517,5.725c-0.306,0.385-0.689,0.828-1.125,0.97c-3.252,1.051-5.259,3.495-5.629,7.1
			c1.272-1.067,2.473-2.075,3.693-3.1c1.462,1.455,1.22,3.113,1.207,4.745c-0.01,1.268-0.023,2.565,0.215,3.802
			c0.821,4.268,4.974,7.014,8.939,7.839c0.384,0.08,0.866-0.101,1.252-0.274c3.21-1.446,5.64-3.748,7.294-6.846
			c1.078-2.02,1.767-4.157,1.738-6.52c-1.387,0.446-2.064,1.203-2.624,2.931c-0.405,1.251-0.672,2.556-1.179,3.763
			c-1.05,2.502-3.618,3.715-6.214,2.973c-2.934-0.837-4.904-2.841-6.045-5.574c-1.83-4.384-0.989-8.595,1.098-12.687
			c0.846-1.658,1.997-2.77,3.892-3.197C35.512,164.713,36.926,164.052,38.489,163.493z M133.126,153.854
			c-0.286-0.35-0.444-0.642-0.687-0.821c-2.443-1.816-3.2-4.282-2.969-7.224c0.109-1.384-0.012-2.792-0.113-4.183
			c-0.034-0.472-0.258-0.97-0.517-1.379c-1.37-2.165-3.124-2.828-5.859-2.589c-4.48,0.392-6.414,3.542-6.538,6.853
			c-0.084,2.271-0.012,4.549,0.017,6.823c0.004,0.297,0.085,0.651,0.261,0.878c1.144,1.481,2.322,2.935,3.586,4.518
			c2.104-1.434,4.167-2.84,6.259-4.266c1.255,1.388,2.493,2.757,3.606,3.988C131.246,155.507,132.171,154.693,133.126,153.854z
			 M135.438,185.589c-2.428-3.075-3.087-6.356-3.251-9.813c-0.039-0.81,0.236-1.196,0.928-1.568c1.631-0.879,3.203-1.866,4.8-2.81
			c-0.032-0.111-0.063-0.223-0.096-0.335c-1.234-0.278-2.456-0.673-3.706-0.804c-1.273-0.134-1.96-0.575-1.96-1.946
			c0.001-0.627-0.252-1.255-0.39-1.883c-0.154-0.042-0.309-0.085-0.463-0.127c-1.17,2.213-2.341,4.427-3.685,6.967
			c-1.021-1.235-1.959-2.37-2.974-3.598c-0.619,0.734-1.054,1.197-1.429,1.704c-1.374,1.861-1.447,1.348,0.049,3.139
			c0.803,0.961,1.037,1.884,0.983,3.144c-0.113,2.627,0.071,5.266,0.125,7.899c0.023,1.118,0.591,1.838,1.564,2.335
			c1.188,0.607,2.097,0.353,3.158-1.033c0.662-0.865-0.061-1.454-0.48-2.115c-0.416-0.656-1.005-1.324-1.097-2.041
			c-0.282-2.215-0.375-4.454-0.507-6.687c-0.017-0.286,0.092-0.676,0.288-0.86c0.68-0.637,1.425-1.203,2.303-1.927
			c0.266,5.324-1.122,10.708,2.653,15.153C133.349,187.423,134.363,186.532,135.438,185.589z M97.721,217.224
			c-3.467-4.008-3.347-8.717,0.361-11.941c3.107,1.345,3.108,1.345,2.946,4.683c-0.018,0.358-0.061,0.716-0.079,1.074
			c-0.108,2.085-0.095,4.159,0.765,6.119c0.941,2.146,1.207,2.233,3.204,1.151c1.36-0.736,1.571-1.649,0.607-2.842
			c-1.045-1.291-1.614-2.764-1.639-4.405c-0.032-2.116,0.054-4.234,0.032-6.351c-0.004-0.38-0.172-0.897-0.449-1.111
			c-1.133-0.876-2.337-1.659-3.675-2.588c-1.405,1.581-2.812,3.163-4.017,4.517c-0.994-1.412-1.999-2.839-3.081-4.376
			c-1.234,1.173-2.206,2.097-2.882,2.739c0.862,1.683,1.931,3.07,2.274,4.619c0.406,1.83,0.147,3.803,0.254,5.709
			c0.054,0.97,0.076,2.024,0.474,2.869c0.514,1.09,1.391,2.01,2.208,3.136C95.982,219.16,96.826,218.221,97.721,217.224z
			 M92.085,217.271c-0.888-0.978-1.65-1.962-2.56-2.78c-1.064-0.958-1.51-2.069-1.477-3.477c0.046-1.997,0.034-3.997-0.016-5.994
			c-0.011-0.42-0.186-0.947-0.476-1.228c-1.062-1.026-2.172-2.011-3.338-2.915c-0.302-0.234-0.982-0.313-1.306-0.134
			c-2.29,1.274-4.302,2.904-5.862,5.037c-0.276,0.378-0.622,0.829-0.635,1.256c-0.083,2.627-0.09,5.256-0.094,7.884
			c0,0.253,0.132,0.558,0.302,0.752c1.18,1.345,2.386,2.667,3.637,4.058c1.741-1.229,3.365-2.374,5.194-3.666
			c1.109,1.279,2.205,2.543,3.356,3.872C90.023,218.948,91.004,218.15,92.085,217.271z M115.696,173.201
			c0.379,0.412,0.682,0.853,1.085,1.161c1.099,0.843,1.382,1.862,1.212,3.245c-0.203,1.656-0.164,3.355-0.09,5.03
			c0.088,1.976,0.592,3.835,2.115,5.388c1.215-0.903,2.356-1.752,3.551-2.64c-0.295-0.323-0.496-0.642-0.78-0.839
			c-1.431-0.991-1.799-2.433-1.817-4.055c-0.025-2.238-0.046-4.479-0.135-6.715c-0.027-0.689-0.072-1.529-0.462-2.021
			c-0.703-0.888-1.672-1.564-2.583-2.377c-1.362,1.136-2.646,2.207-4.006,3.343c-1.289-1.036-2.579-2.072-3.865-3.105
			c-2.374,2.886-2.355,2.87-0.089,5.537c0.323,0.381,0.506,0.99,0.523,1.502c0.074,2.152-0.007,4.311,0.103,6.46
			c0.093,1.834,0.612,3.57,1.737,5.191c1.251-1.044,2.4-2.003,3.768-3.144c-2.748-1.817-2.736-4.414-2.789-7.172
			C113.132,175.83,113.907,174.432,115.696,173.201z M89.28,102.899c0.733,0.769,1.281,1.401,1.889,1.969
			c1.149,1.074,1.739,2.317,1.539,3.935c-0.107,0.866-0.06,1.759-0.009,2.636c0.111,1.892,0.321,3.781,1.814,5.167
			c0.311,0.289,0.959,0.516,1.32,0.39c0.88-0.307,1.683-0.837,2.212-1.116c-0.772-2.355-1.534-4.519-2.187-6.715
			c-0.536-1.804-0.598-3.543,1.289-4.731c0.21-0.132,0.323-0.421,0.547-0.729c-2.163-1.071-4.823-1.546-4.813-4.797
			c-1.645,1.286-3.041,2.377-4.476,3.5c-0.908-1.315-1.689-2.447-2.536-3.675c-0.735,0.636-1.278,1.16-1.878,1.609
			c-0.618,0.464-0.674,0.873-0.315,1.599c0.488,0.989,0.892,2.074,1.052,3.159c0.343,2.326,0.495,4.68,0.748,7.021
			c0.203,1.881,0.502,3.739,1.673,5.677c0.41-0.529,0.651-0.971,1.008-1.275c0.947-0.807,1.244-1.683,0.878-2.944
			c-0.43-1.487-0.65-3.042-0.87-4.58C87.872,106.939,88.195,104.968,89.28,102.899z M49.447,188.989
			c0.286-0.104,0.448-0.137,0.583-0.216c2.729-1.615,4.77-3.979,6.806-6.335c0.221-0.257,0.264-0.745,0.244-1.119
			c-0.14-2.549-0.313-5.097-0.492-7.645c-0.016-0.222-0.078-0.506-0.226-0.645c-1.449-1.354-2.921-2.682-4.64-4.248
			c-1.6,1.777-3.396,3.736-5.139,5.741c-0.289,0.332-0.48,0.855-0.499,1.299c-0.108,2.632-0.179,5.266-0.196,7.899
			c-0.003,0.521,0.152,1.142,0.459,1.546C47.333,186.561,48.423,187.774,49.447,188.989z M55.364,197.017
			c0.336,2.082,0.126,3.097-1.026,4.477c-0.868,1.039-1.896,1.943-2.8,2.955c-0.68,0.759-1.276,1.592-1.91,2.393
			c0.063,0.083,0.126,0.167,0.189,0.25c0.752-0.203,1.501-0.42,2.257-0.607c1.874-0.462,3.077,0.243,3.151,2.147
			c0.067,1.727-0.173,3.479-0.409,5.2c-0.165,1.203-0.553,2.376-0.897,3.794c1.819-1.043,3.087-2.333,3.555-4.045
			c0.561-2.051,0.906-4.205,1.003-6.329c0.118-2.585-0.16-5.186-0.176-7.779c-0.003-0.583,0.273-1.225,0.584-1.741
			c0.539-0.896,1.205-1.714,1.873-2.642c-0.667-0.197-1.156-0.27-1.576-0.479c-2.62-1.307-4.683-0.341-6.557,1.531
			c-1.791,1.789-2.777,3.917-2.893,6.428c0.116,0.091,0.232,0.182,0.349,0.272C51.782,200.966,53.483,199.09,55.364,197.017z
			 M51.167,98.269c-2.644,1.849-4.75,4.221-6.564,6.87c-0.13,0.19-0.081,0.533-0.053,0.798c0.206,1.946,0.605,3.89,0.6,5.833
			c-0.006,2.635,1.71,4.226,3.05,6.158c2.425-1.419,4.387-3.147,6.137-5.147c0.774-0.885,1.174-1.796,1.084-3.021
			c-0.131-1.791-0.044-3.597-0.102-5.394c-0.014-0.452-0.103-0.987-0.361-1.33C53.756,101.445,52.482,99.908,51.167,98.269z
			 M106.374,151.923c0.76-2.3,2.35-3.866,3.947-5.432c1.511-1.48,3.023-2.961,4.499-4.477c0.23-0.236,0.474-0.772,0.36-0.982
			c-0.898-1.675-1.882-3.304-2.878-5.016c-1.571,1.187-3.02,2.281-4.586,3.465c0.586,0.285,0.989,0.554,1.435,0.684
			c1.198,0.352,1.812,1.247,2.224,2.316c0.104,0.269,0.109,0.764-0.059,0.918c-1.277,1.175-2.608,2.292-4.199,3.665
			c0.149-1.379,0.158-2.417,0.392-3.402c0.324-1.368-0.335-2.168-1.524-3.034c-0.463,1.133-1.122,2.156-1.272,3.249
			c-0.261,1.885-0.059,3.833-0.316,5.718c-0.374,2.729,0.967,4.462,2.952,5.957c0.667,0.502,1.282,1.072,2.118,1.778
			c2.05-2.449,4.062-4.854,6.075-7.259c-0.155-0.168-0.312-0.337-0.467-0.506c-1.551,1.103-3.101,2.206-4.706,3.348
			c-0.516-0.723-1.039-1.456-1.569-2.198C107.919,151.154,107.146,151.539,106.374,151.923z M93.167,137.129
			c-0.884,1.158-1.721,2.256-2.589,3.394c1.042,1.095,2.096,2.081,2.99,3.194c0.401,0.5,0.665,1.25,0.68,1.893
			c0.043,1.912-0.168,3.831-0.094,5.74c0.088,2.267,0.706,4.388,2.454,6.142c0.97-1.027,1.891-2.002,2.795-2.959
			c-3.143-4.582-3.583-9.152-1.196-12.758c0.969,1.016,1.918,2.012,2.94,3.083c0.99-1.197,1.915-2.315,2.901-3.507
			c-1.318-1.208-2.509-2.3-3.718-3.408c-1.267,1.053-2.391,1.987-3.575,2.97C95.543,139.635,94.396,138.426,93.167,137.129z
			 M70.825,94.321c0.464,0.565,0.797,1.078,1.232,1.478c0.998,0.917,1.204,2,1.156,3.332c-0.148,4.071-0.15,8.146-0.203,12.22
			c-0.031,2.45,1.267,4.342,2.494,6.247c1.872-1.194,2.326-2.559,1.482-4.625c-1.096-2.684-1.138-5.604-1.027-8.489
			c0.115-2.993,0.266-5.985,0.365-8.979c0.014-0.406-0.067-0.912-0.305-1.212c-0.712-0.898-1.525-1.717-2.347-2.621
			C72.705,92.572,71.807,93.407,70.825,94.321z M37.003,166.574c1.644,1.031,2.967,1.913,4.349,2.689
			c0.325,0.183,0.967,0.178,1.257-0.029c0.802-0.573,1.496-1.3,2.115-1.859c-1.604-1.748-3.144-3.424-4.75-5.175
			c-1.677,1.909-3.45,3.909-5.196,5.933c-0.249,0.289-0.443,0.675-0.528,1.047c-1.09,4.765-0.836,9.561-0.355,14.664
			c1.461-1.94,2.849-3.538,2.562-5.959c-0.168-1.42-0.147-2.878-0.064-4.31C36.528,171.289,36.785,169.01,37.003,166.574z
			 M84.169,114.91c-1.562-1.602-2.227-3.516-2.323-5.584c-0.088-1.907-0.072-3.837,0.121-5.734c0.214-2.102-0.183-3.828-2.083-5.037
			c-0.245,0.266-0.459,0.56-0.732,0.783c-1.214,0.993-1.646,2.115-0.841,3.611c0.291,0.541,0.408,1.22,0.444,1.846
			c0.186,3.181,0.306,6.365,0.487,9.545c0.027,0.482,0.114,1.076,0.411,1.405c0.628,0.697,1.413,1.252,2.193,1.916
			C82.66,116.697,83.397,115.824,84.169,114.91z M104.074,125.623c0.346,4.645-0.973,9.162,0.136,14.002
			c2.589-4.698,1.113-9.406,1.393-14.002C105.041,125.623,104.618,125.623,104.074,125.623z"/>
		<path fill-rule="evenodd" clip-rule="evenodd" fill="none" d="M103.161,261.612c0-1.334-0.04-2.562,0.031-3.783
			c0.016-0.258,0.396-0.559,0.677-0.729c3.105-1.89,6.234-3.74,9.328-5.647c0.557-0.343,1.064-0.836,1.453-1.364
			c1.158-1.577,2.312-3.165,3.349-4.824c2.602-4.168,5.979-7.567,9.959-10.413c1.593-1.139,3.103-2.392,4.662-3.576
			c3.086-2.342,5.538-5.285,7.972-8.261c2.868-3.507,5.98-6.774,9.83-9.249c0.302-0.193,0.609-0.38,0.922-0.557
			c0.098-0.055,0.221-0.065,0.394-0.113c3.173,5.522,4.024,11.162,1.226,17.119c-4.691,9.982-12.311,17.151-21.549,22.862
			c-5.548,3.43-11.708,4.999-17.95,6.391C110.082,260.221,106.681,260.883,103.161,261.612z"/>
		<path fill-rule="evenodd" clip-rule="evenodd" fill="none" d="M107.166,77.531c0-21.767,0-43.209,0-64.823
			c0.447,0.64,0.797,1.2,1.206,1.712c3.022,3.774,6.086,7.517,9.079,11.314c2.577,3.271,5.027,6.64,6.158,10.739
			c1.492,5.409,0.881,10.748-1.07,15.878c-3.453,9.074-8.473,17.258-14.719,24.689C107.729,77.15,107.587,77.219,107.166,77.531z"/>
		<path fill-rule="evenodd" clip-rule="evenodd" fill="none" d="M52.45,232.373c1.432,0.573,2.834,1.236,4.301,1.7
			c3.188,1.01,6.373,2.069,9.625,2.833c6.069,1.424,10.809,4.85,13.948,10.017c3.98,6.553,10.013,9.049,17.071,10.084
			c1.18,0.174,2.367,0.306,3.619,0.466c0.116,0.869,0.226,1.687,0.366,2.737c-2.224,0.102-4.323,0.271-6.422,0.281
			c-6.686,0.035-13.204-1.076-19.108-4.233c-3.522-1.883-6.74-4.418-9.866-6.942c-5.39-4.354-9.963-9.463-13.202-15.663
			c-0.181-0.347-0.341-0.705-0.511-1.058C52.33,232.521,52.39,232.447,52.45,232.373z"/>
		<path fill-rule="evenodd" clip-rule="evenodd" d="M72.922,114.461c-3.513,3.55-6.807,7.275-10.514,10.527
			c-4.815,4.225-8.503,9.209-11.285,14.895c-1.769,3.615-3.464,7.286-4.882,11.048c-1.397,3.708-1.691,7.621-0.938,11.744
			c-0.952-0.052-1.828-0.1-2.751-0.149c-0.185-4.857-0.056-9.553,1.86-13.92c1.939-4.419,4.123-8.735,6.331-13.029
			c2.662-5.178,6.907-9.073,11.036-13.021c2.073-1.982,4.405-3.691,6.576-5.576c0.473-0.411,0.752-1.042,1.121-1.573
			c-0.084-0.116-0.168-0.231-0.252-0.347c-0.832,0.276-1.715,0.454-2.483,0.853c-1.024,0.531-1.762,0.439-2.388-0.558
			c-0.207-0.33-0.534-0.584-0.88-0.952c-1.513,0.989-3.005,1.964-4.823,3.152c-0.445-1.803-0.959-3.417-1.217-5.07
			c-0.238-1.531-0.32-3.109-0.256-4.658c0.08-1.949-0.403-3.709-1.313-5.381c-0.359-0.661-0.313-1.119,0.268-1.65
			c0.732-0.669,1.352-1.461,2.126-2.318c1.391,1.829,1.61,3.736,1.692,5.68c0.091,2.153,0.036,4.322,0.299,6.453
			c0.144,1.164,0.816,2.263,1.251,3.391c0.165-0.022,0.329-0.044,0.494-0.067c0.138-0.823,0.336-1.642,0.404-2.472
			c0.241-2.972,0.111-5.906-1.026-8.724c-0.116-0.288-0.157-0.754-0.002-0.978c0.628-0.907,1.347-1.751,2.092-2.695
			c1.47,1.969,1.861,4.115,1.996,6.32c0.076,1.235,0.164,2.501-0.02,3.712c-0.269,1.773,0.621,2.841,1.948,3.899
			c0.062-0.315,0.148-0.56,0.154-0.807c0.049-1.997,0.02-3.998,0.146-5.99c0.071-1.118-0.23-2.02-0.905-2.866
			c-0.27-0.339-0.467-0.738-0.751-1.197c0.989-1.131,1.979-2.261,3.027-3.459c1.221,1.362,1.643,2.938,1.666,4.574
			c0.027,1.873-0.04,3.765-0.294,5.618c-0.208,1.512,0.044,2.741,1.114,3.829C71.958,113.125,72.284,113.639,72.922,114.461z"/>
		<path fill-rule="evenodd" clip-rule="evenodd" d="M25.137,117.339c0-0.341,0-0.602,0-0.963c-0.598,0.063-1.167,0.124-1.879,0.198
			c1.296-2.298,2.23-4.588,2.024-7.149c-0.079-0.979-0.281-1.984-0.63-2.9c-0.526-1.38-1.509-1.669-2.779-0.894
			c-1.035,0.632-2.008,1.365-3.096,1.952c1.098-2.486,2.813-4.438,5.024-5.924c0.751-0.505,1.175-1.014,1.033-1.932
			c-0.035-0.228,0.042-0.474,0.067-0.712c0.351-3.429-0.024-3.875-3.628-4.256c-0.438,0.953-0.812,1.963-1.347,2.879
			c-0.532,0.91-1.227,1.724-2.025,2.819c-0.546-2.609,0.094-4.58,1.442-6.363c1.466-1.938,3.222-3.105,5.854-2.505
			c1.464,0.334,3.013,0.3,4.717,0.45c-3.649,6.997-1.727,14.444-2.012,21.718c1.05-1.312,1.194-2.836,1.051-4.428
			c-0.345-3.826-0.426-7.613,0.231-11.455c0.565-3.306,2.563-5.154,5.323-6.701c1.19,1.114,2.398,2.269,3.632,3.395
			c1.418,1.293,1.499,2.77,0.78,4.456c-0.813,1.908-0.773,1.925,1.001,2.913c0.07,0.039,0.139,0.084,0.214,0.107
			c2.423,0.745,2.807,2.65,2.714,4.806c-0.175,4.062-1.747,7.512-4.674,10.317c-0.325,0.312-0.975,0.471-1.439,0.413
			c-1.225-0.151-2.425-0.49-3.644-0.703C30.434,116.415,27.78,116.24,25.137,117.339z M32.918,104.135
			c1.233-1.415,2.301-2.646,3.375-3.872c0.601-0.686,0.625-1.377-0.059-1.987c-1.416-1.263-2.864-2.49-4.299-3.731
			c-0.176,0.068-0.352,0.136-0.528,0.204c0,6.072,0,12.143,0,18.303c2.321,0.427,4.892,0.9,7.676,1.413
			c0.291-1.514,0.699-2.941,0.818-4.392c0.282-3.441-1.423-5.358-4.901-5.715C34.369,104.292,33.738,104.222,32.918,104.135z"/>
		<path fill-rule="evenodd" clip-rule="evenodd" d="M79.212,134.452c-2.132,0-4.224,0-6.49,0c0.332,0.76,0.607,1.408,0.898,2.049
			c0.279,0.615,0.574,1.222,0.93,1.977c-1.143,0.745-2.258,1.471-3.438,2.24c-1.075-1.437-1.193-2.91-0.805-4.496
			c0.697-2.84,3.649-5.312,6.411-5.195c2.106,0.089,4.234-0.094,6.339-0.292c0.792-0.074,1.12,0.184,1.295,0.838
			c0.916,3.427,1.84,6.851,2.727,10.285c0.896,3.473,1.769,6.952,2.615,10.438c0.233,0.961,0.755,1.29,1.713,1.184
			c0.695-0.077,1.406-0.015,2.109-0.015c0.077,0.125,0.153,0.251,0.229,0.376c-0.962,0.875-1.873,1.817-2.899,2.608
			c-1.58,1.219-3.072,0.844-3.667-1.052c-0.774-2.467-1.322-5.005-1.917-7.524c-0.527-2.235-0.497-2.237-2.825-2.244
			c-1.199-0.004-2.4-0.078-3.596-0.019c-0.399,0.02-0.976,0.25-1.141,0.56c-0.747,1.404-1.375,2.871-2.08,4.386
			c1.86,1.062,3.649,2.085,5.659,3.232c-1.027,0.863-1.895,1.659-2.845,2.341c-0.226,0.162-0.756,0.011-1.097-0.123
			c-0.964-0.379-1.894-0.845-2.853-1.237c-1.541-0.631-3.04-0.554-4.469,0.348c-1.482,0.935-2.966,1.866-4.679,2.62
			c0.582-0.798,1.05-1.724,1.77-2.367c1.574-1.404,3.291-2.649,4.918-3.996c0.479-0.396,0.955-0.854,1.266-1.383
			c2.753-4.688,4.31-9.853,5.917-14.997C79.25,134.853,79.212,134.686,79.212,134.452z M84.392,142.029
			c-0.912-2.523-1.716-4.752-2.521-6.981c-0.094,0.022-0.188,0.044-0.283,0.066c-0.688,2.302-1.376,4.604-2.067,6.915
			C81.132,142.029,82.619,142.029,84.392,142.029z"/>
		<path fill-rule="evenodd" clip-rule="evenodd" d="M117.497,105.324c-1.354,0.739-2.601,1.419-4.066,2.22
			c0.781-2.856,2.186-4.928,4.64-6.303c0.716-0.401,1.338-1.062,1.844-1.726c1.137-1.489,2.157-3.067,3.262-4.581
			c0.302-0.414,0.694-0.788,1.115-1.081c0.815-0.568,1.639-1.153,2.535-1.57c1.233-0.573,1.431,1.047,2.463,1.254
			c0.583-0.508,1.237-1.077,1.991-1.733c1.172,1.173,2.393,2.254,3.436,3.486c0.767,0.904,0.589,1.566-0.577,1.875
			c-1.026,0.271-2.176,0.165-3.262,0.089c-0.702-0.048-1.388-0.341-2.273-0.575c-0.292,1.503-0.574,2.96-0.854,4.396
			c1.564-0.348,2.985-0.667,4.408-0.979c0.154-0.034,0.318-0.03,0.478-0.03c2.97,0.004,3.665,0.568,4.242,3.44
			c0.979,4.869-1.146,9.959-5.166,12.375c-4.502,2.705-9.403,1.417-11.771-3.278c-0.923-1.831-1.384-3.895-2.046-5.856
			C117.757,106.341,117.661,105.918,117.497,105.324z M127.324,93.514c-3.596,2.074-6.624,7.909-6.052,11.931
			c0.403,2.835,1.435,5.441,3.972,7.071c1.13,0.725,2.438,1.183,3.69,1.697c0.275,0.113,0.738,0.065,0.987-0.101
			c1.028-0.684,2.064-1.376,2.992-2.186c1.844-1.609,1.883-3.723,1.258-5.843c-0.522-1.773-2.781-3.103-4.837-3.179
			c-0.743-0.027-0.979,0.246-0.998,0.955c-0.029,1.076-0.11,2.155-0.235,3.225c-0.211,1.801-0.439,3.611-2.079,5.056
			c-0.27-0.923-0.612-1.669-0.69-2.443c-0.204-2.022-0.007-4.127-0.492-6.069c-0.783-3.136,0.504-5.272,2.573-7.32
			C128.679,95.054,128.597,94.972,127.324,93.514z"/>
		<path fill-rule="evenodd" clip-rule="evenodd" d="M176.622,100.983c-1.813,1.533-2.179,3.686-2.379,5.885
			c-0.127,1.39-0.181,2.79-0.19,4.187c-0.002,0.326,0.233,0.745,0.492,0.961c0.609,0.51,1.299,0.923,2.125,1.493
			c-1.073,0.885-2.068,1.706-3.142,2.59c-0.727-0.537-1.536-0.957-2.082-1.601c-0.353-0.417-0.465-1.17-0.429-1.757
			c0.094-1.511,0.341-3.013,0.507-4.52c0.229-2.086,0.278-4.145-1.133-6.121c-0.458,0.382-0.877,0.716-1.277,1.071
			c-1.556,1.379-3.124,2.745-4.64,4.166c-0.301,0.281-0.594,0.807-0.55,1.179c0.186,1.57,0.501,3.125,0.798,4.86
			c1.677-1.102,3.214-2.113,4.752-3.123c-0.995,3.45-4.151,4.521-6.627,6.459c-1.271-1.854-1.728-3.869-1.994-5.926
			c-0.283-2.178-0.485-4.366-0.673-6.554c-0.03-0.346,0.091-0.831,0.329-1.054c1.942-1.824,3.929-3.6,5.991-5.472
			c0.938,1.065,1.694,1.923,2.521,2.86c0.794-0.518,1.587-0.966,2.297-1.521c0.598-0.468,1.012-0.362,1.562,0.084
			c1.847,1.494,1.86,1.47,3.979,0.245c1.684-0.973,3.424-1.72,5.718-1.287c-0.415,0.894-0.667,1.793-1.191,2.485
			c-0.78,1.031-1.254,2.088-1.259,3.392c-0.005,1.275-0.133,2.55-0.166,3.826c-0.042,1.586,0.833,2.706,1.977,3.659
			c0.697,0.582,1.419,1.135,2.261,1.805c-0.839,0.478-1.544,0.908-2.274,1.29c-2.158,1.126-3.097,0.808-4.104-1.449
			c-1.082-2.422-0.915-4.985-0.8-7.547c0.067-1.503,0.013-3.011,0.013-4.518C176.896,101.016,176.759,101,176.622,100.983z
			 M163.692,100.827c-0.143,1.854-0.262,3.401-0.38,4.949c0.101,0.051,0.202,0.103,0.303,0.154c0.999-0.725,1.997-1.449,3.123-2.266
			C165.738,102.733,164.854,101.908,163.692,100.827z"/>
		<path fill-rule="evenodd" clip-rule="evenodd" d="M87.476,173.99c-2.104,4.186-1.756,8.928,0.672,12.326
			c-0.968,0.84-1.947,1.688-2.979,2.583c-1.457-1.737-1.628-3.766-1.775-5.785c-0.142-1.948-0.072-3.925-0.37-5.847
			c-0.204-1.317-0.879-2.562-1.405-4.01c-2.511,2.739-3.075,8.333,0.196,13.484c-0.948,0.796-1.91,1.605-2.943,2.473
			c-1.592-1.8-1.914-3.911-2.009-6.073c-0.07-1.596,0.005-3.197-0.041-4.795c-0.06-2.084-0.622-4.014-2.04-5.737
			c0.713-0.887,1.408-1.749,2.267-2.813c1.077,0.96,2.096,1.868,3.179,2.833c0.775-0.827,1.792-1.914,2.898-3.095
			c1.23,1.403,2.27,2.59,3.475,3.966c1.2-1.342,2.315-2.588,3.649-4.077c0.116,0.664,0.178,0.944,0.212,1.227
			c0.159,1.297,0.2,2.614,1.529,3.431c0.263,0.161,0.347,0.765,0.354,1.167c0.033,2.116-0.118,4.244,0.063,6.346
			c0.106,1.229,0.528,2.524,1.149,3.592c0.672,1.156,0.604,1.98-0.276,2.875c-0.362,0.368-0.672,0.788-1.061,1.25
			c-0.856-0.708-1.762-1.368-2.543-2.151c-0.273-0.274-0.306-0.851-0.336-1.296c-0.189-2.778-0.234-5.571-0.564-8.331
			C88.629,176.316,87.926,175.169,87.476,173.99z"/>
		<path fill-rule="evenodd" clip-rule="evenodd" d="M56.516,172.242c0.88-0.972,1.7-1.877,2.641-2.915
			c1.241,1.119,2.438,2.2,3.709,3.347c0.89-0.826,1.76-1.634,2.724-2.527c0.986,0.709,1.946,1.398,2.975,2.138
			c0.824-0.688,1.645-1.373,2.552-2.13c1.501,1.694,3.226,3.142,2.794,5.822c-0.25,1.557-0.136,3.183-0.082,4.773
			c0.068,1.987,0.831,3.723,2.326,5.301c-1.083,0.967-2.134,1.903-3.264,2.91c-1.23-1.704-1.699-3.545-1.796-5.463
			c-0.097-1.914-0.113-3.842,0.009-5.753c0.075-1.179-0.267-1.979-1.22-2.62c-0.55-0.37-1.033-0.84-1.547-1.265
			c-0.12,0.034-0.24,0.069-0.36,0.104c-0.083,2.656-0.278,5.316-0.179,7.965c0.03,0.798,0.856,1.581,1.362,2.341
			c0.482,0.725,1.021,1.41,1.601,2.205c-1.214,0.805-2.367,1.568-3.559,2.359c-1.575-1.603-2.066-3.526-2.135-5.611
			c-0.076-2.314-0.062-4.637-0.257-6.94c-0.087-1.032-0.589-2.029-0.903-3.042c-0.148-0.014-0.296-0.027-0.444-0.04
			c-0.356,0.888-0.874,1.748-1.036,2.67c-0.352,1.998-0.561,4.025-0.734,6.048c-0.034,0.393,0.265,0.924,0.575,1.215
			c0.872,0.82,1.83,1.549,2.788,2.342c-1.118,1.398-1.927,2.412-2.807,3.514c-1.017-0.896-1.978-1.672-2.84-2.546
			c-0.252-0.256-0.305-0.791-0.306-1.197c-0.006-2.999-0.04-6,0.072-8.995c0.046-1.253-0.299-2.141-1.329-2.827
			C57.391,173.119,57.018,172.694,56.516,172.242z"/>
		<path fill-rule="evenodd" clip-rule="evenodd" d="M68.254,201.685c4.121,0.566,5.741,3.229,6.233,6.819
			c0.091,0.663-0.056,1.427-0.312,2.055c-0.586,1.439-1.248,2.855-1.984,4.224c-2.046,3.803-3.704,4.578-7.9,3.809
			c-0.079-0.014-0.163-0.015-0.235-0.045c-3.198-1.338-6.178-1.168-8.841,1.261c-0.075,0.068-0.21,0.069-0.485,0.152
			c1.138-2.233,2.662-3.998,4.333-5.625c0.666-0.648,0.956-1.325,0.918-2.21c-0.145-3.432-0.239-6.867-0.439-10.296
			c-0.126-2.164,0.578-3.996,1.883-5.653c0.836-1.061,1.68-2.116,2.681-3.375c1.839,1.901,3.608,3.681,5.296,5.534
			c0.239,0.262,0.235,0.943,0.08,1.323C69.205,200.334,68.727,200.93,68.254,201.685z M63.734,206.085
			c0.198-0.353,0.315-0.599,0.466-0.823c2.944-4.396,2.833-4.595-1.614-7.775c-0.028-0.021-0.078-0.01-0.2-0.021
			c0,5.471,0,10.937,0,16.707c2.145,0.422,4.467,0.919,6.809,1.3c0.364,0.06,1.044-0.316,1.185-0.654
			c0.578-1.395,1.018-2.847,1.469-4.291c0.071-0.227,0.005-0.558-0.118-0.771c-0.475-0.83-0.954-1.664-1.514-2.438
			c-0.743-1.027-1.723-1.616-3.074-1.463C66.077,205.976,65.001,206.004,63.734,206.085z"/>
		<path fill-rule="evenodd" clip-rule="evenodd" d="M96.638,123.026c0.975-1.227,1.861-2.54,2.948-3.658
			c1.272-1.31,2.968-1.227,4.619-0.911c1.71,0.327,3.407,0.721,5.404,1.148c-0.638-2.197-1.205-4.15-1.808-6.226
			c-1.899,1.371-3.644,2.629-5.499,3.967c-0.996-1.103-2-2.169-2.938-3.29c-0.196-0.234-0.208-0.669-0.209-1.012
			c-0.014-3.317-0.033-6.636,0.02-9.953c0.008-0.485,0.386-0.965,0.602-1.444c0.031-0.068,0.111-0.113,0.167-0.169
			c3.644-3.59,3.643-3.589,8.199-1.514c0.869,0.396,2.066,0.564,2.518,1.237c0.403,0.6-0.013,1.752-0.073,2.661
			c-0.257,3.795,0.323,7.495,1.407,11.111c0.679,2.267,0.131,4.127-1.61,5.606c-2.129,1.808-4.538,2.819-7.274,1.486
			c-1.453-0.708-2.67-0.725-3.987,0.211c-0.639,0.454-1.418,0.709-2.134,1.054C96.873,123.229,96.755,123.128,96.638,123.026z
			 M104.056,113.985c0.442-0.276,0.755-0.526,1.109-0.684c2.518-1.119,3.028-2.866,2.576-5.601
			c-0.372-2.246-1.024-3.828-3.011-4.911c-0.899-0.491-1.665-1.228-2.683-1.999C102.496,105.375,101.294,109.889,104.056,113.985z"
			/>
		<path fill-rule="evenodd" clip-rule="evenodd" d="M137.355,172.952c0.727-1.014,1.444-2.013,2.274-3.17
			c1.017,0.947,1.999,1.802,2.89,2.743c0.192,0.203,0.127,0.733,0.057,1.089c-0.482,2.469-1.168,4.941-0.511,7.459
			c0.295,1.135,0.886,2.199,1.401,3.268c0.436,0.901,1.044,0.755,1.721,0.206c1.066-0.866,1.555-2.032,1.69-3.332
			c0.136-1.309,0.144-2.632,0.17-3.949c0.005-0.259-0.141-0.531-0.259-0.777c-0.139-0.286-0.336-0.544-0.486-0.826
			c-2.112-3.949-2.012-2.93,1.013-5.911c0.845,1.273,1.694,2.525,2.504,3.801c0.134,0.212,0.177,0.546,0.128,0.798
			c-0.624,3.244,0.172,6.361,0.855,9.478c0.917,4.175-0.54,7.805-4.326,9.895c-0.867,0.479-2.138,0.264-3.225,0.284
			c-0.375,0.008-0.794-0.175-1.126-0.379c-2.141-1.316-4.192-1.131-6.206,0.279c-0.258,0.181-0.572,0.282-0.866,0.408
			c-0.064,0.028-0.152,0.004-0.648,0.004c1.204-1.436,2.235-2.687,3.29-3.918c0.977-1.141,2.166-1.521,3.638-1.036
			c1.59,0.524,3.206,0.966,4.806,1.458c1.103,0.34,2.617-0.95,2.344-2.066c-0.245-1.006-0.604-1.983-0.925-2.97
			c-0.071-0.22-0.191-0.424-0.337-0.74c-1.483,1.053-2.951,2.015-4.322,3.098c-0.77,0.607-1.223,0.416-1.785-0.228
			c-2.103-2.402-2.31-5.258-2.032-8.237c0.03-0.317,0.044-0.651,0.151-0.945c0.774-2.122,0.203-3.842-1.503-5.251
			C137.584,173.362,137.502,173.164,137.355,172.952z"/>
		<path fill-rule="evenodd" clip-rule="evenodd" d="M145.678,115.544c-1.139,0.682-2.224,1.331-3.363,2.013
			c-1.207-2.013-1.211-4.183-1.314-6.316c-0.05-1.032,0.014-2.077,0.109-3.108c0.208-2.263-0.58-4.153-2.099-5.764
			c-0.818-0.868-0.847-1.566,0.147-2.328c0.817-0.627,1.545-1.373,2.432-2.175c0.628,1.314,1.203,2.521,1.855,3.887
			c1.519-1.046,2.982-2.056,4.57-3.149c0.778,1.038,1.625,1.995,2.267,3.073c0.591,0.994,1.275,0.818,1.958,0.339
			c0.812-0.57,1.511-1.3,2.286-1.926c0.924-0.745,1.878-1.453,2.899-2.239c0.844,1.22,1.66,2.302,2.342,3.462
			c0.158,0.268-0.006,0.93-0.253,1.199c-1.809,1.969-3.642,3.92-5.547,5.796c-0.569,0.561-0.728,1.049-0.548,1.785
			c0.283,1.156,0.493,2.329,0.769,3.657c1.617-0.634,3.146-1.233,5.007-1.961c-1.828,2.65-4.293,3.962-6.602,5.57
			c-1.501-1.771-2.287-3.789-2.269-5.975c0.018-2.094,0.438-4.183,0.646-6.277c0.064-0.651,0.01-1.313,0.01-1.971
			c-0.144-0.039-0.286-0.079-0.43-0.118c-0.709,0.604-1.417,1.209-2.19,1.87c-1.161-0.781-2.312-1.556-3.469-2.333
			C143.402,105.476,143.766,111.791,145.678,115.544z M154.897,100.553c-0.703,2.222-1.347,4.257-2.07,6.544
			C156.041,105.577,156.923,102.855,154.897,100.553z"/>
		<path fill-rule="evenodd" clip-rule="evenodd" d="M112.139,201.772c-4.918-5.831-4.766-9.126,0.744-12.4
			c-0.395,1.305-0.674,2.424-1.074,3.498c-0.397,1.065-0.2,1.998,0.54,2.758c0.858,0.88,1.718,1.861,2.775,2.427
			c3.783,2.022,5,5.34,4.812,9.301c-0.107,2.246-0.429,4.52-0.985,6.695c-0.514,2.01-1.912,3.543-3.634,4.765
			c-1.21,0.858-2.441,0.888-3.564,0.096c-1.396-0.984-2.659-2.157-3.95-3.283c-0.165-0.144-0.225-0.5-0.206-0.748
			c0.204-2.782,0.473-5.562,0.63-8.347c0.049-0.863,0.263-1.52,0.928-2.08C110.156,203.606,111.11,202.701,112.139,201.772z
			 M114.026,201.465c-0.627,0.624-1.126,1.188-1.694,1.669c-0.868,0.737-1.112,1.629-1.043,2.747
			c0.093,1.469,0.294,3.014-0.043,4.407c-0.575,2.379,0.524,3.582,2.366,4.633c0.64,0.365,0.956,0.315,1.546-0.064
			c1.209-0.778,1.709-1.768,1.546-3.188c-0.095-0.827,0.011-1.676-0.049-2.509C116.461,206.423,115.837,203.823,114.026,201.465z"/>
		<path fill-rule="evenodd" clip-rule="evenodd" d="M101.206,172.294c1.882-0.945,1.544-2.535,1.568-4.098
			c0.056-3.472,0.258-6.94,0.411-10.669c1.672,1.18,2.421,2.651,2.344,4.365c-0.1,2.221-0.389,4.448-0.791,6.636
			c-0.244,1.324-0.227,2.331,1.148,2.935c1.049,0.461,1.166,1.274,1.067,2.351c-0.243,2.663-0.367,5.339-0.454,8.012
			c-0.015,0.434,0.323,0.955,0.642,1.307c0.774,0.856,1.633,1.637,2.532,2.521c-1.149,0.967-2.238,1.881-3.395,2.853
			c-0.981-1.143-1.863-2.168-2.801-3.259c-1.685,1.19-3.365,2.377-5.098,3.601c-1.813-1.89-3.36-3.561-2.985-6.569
			c0.295-2.376-0.271-4.922-0.797-7.316c-0.386-1.757-0.248-3.126,1.1-4.325c0.236-0.211,0.429-0.469,0.716-0.788
			c1.061,1.413,1.571,2.996,1.686,4.653c0.175,2.508,0.181,5.027,0.249,7.542c0.024,0.89,1.126,2.546,1.969,2.735
			c0.313,0.07,0.773-0.133,1.053-0.354c2.275-1.801,2.856-4.244,2.476-6.977C103.579,175.545,102.77,173.863,101.206,172.294z"/>
		<path fill-rule="evenodd" clip-rule="evenodd" d="M38.489,163.493c-1.563,0.559-2.977,1.22-4.464,1.556
			c-1.896,0.428-3.046,1.539-3.892,3.197c-2.087,4.092-2.927,8.303-1.098,12.687c1.141,2.733,3.111,4.737,6.045,5.574
			c2.597,0.742,5.165-0.471,6.214-2.973c0.506-1.207,0.773-2.512,1.179-3.763c0.56-1.728,1.237-2.484,2.624-2.931
			c0.029,2.362-0.66,4.5-1.738,6.52c-1.654,3.098-4.084,5.399-7.294,6.846c-0.386,0.174-0.868,0.354-1.252,0.274
			c-3.965-0.825-8.118-3.571-8.939-7.839c-0.238-1.236-0.225-2.534-0.215-3.802c0.013-1.632,0.255-3.29-1.207-4.745
			c-1.22,1.024-2.421,2.032-3.693,3.1c0.371-3.604,2.377-6.049,5.629-7.1c0.437-0.142,0.82-0.585,1.125-0.97
			c1.513-1.904,2.865-3.954,4.517-5.725C33.723,161.588,36.435,161.683,38.489,163.493z"/>
		<path fill-rule="evenodd" clip-rule="evenodd" d="M133.126,153.854c-0.955,0.84-1.88,1.653-2.954,2.598
			c-1.113-1.231-2.352-2.601-3.606-3.988c-2.092,1.426-4.155,2.832-6.259,4.266c-1.264-1.583-2.442-3.036-3.586-4.518
			c-0.176-0.227-0.257-0.581-0.261-0.878c-0.028-2.274-0.101-4.552-0.017-6.823c0.124-3.31,2.058-6.46,6.538-6.853
			c2.735-0.239,4.489,0.424,5.859,2.589c0.259,0.409,0.482,0.907,0.517,1.379c0.102,1.391,0.223,2.799,0.113,4.183
			c-0.231,2.941,0.525,5.407,2.969,7.224C132.682,153.212,132.84,153.504,133.126,153.854z M119.26,140.673
			c0,2.681-0.004,5.263,0.007,7.845c0.001,0.188,0.052,0.415,0.164,0.556c0.935,1.171,1.891,2.326,2.859,3.51
			c1.249-0.73,2.356-1.44,3.522-2.035c0.719-0.367,0.937-0.854,0.896-1.617c-0.078-1.511-0.077-3.025-0.133-4.538
			c-0.013-0.345-0.001-0.826-0.207-1.007C124.447,141.703,122.359,140.378,119.26,140.673z"/>
		<path fill-rule="evenodd" clip-rule="evenodd" d="M135.438,185.589c-1.075,0.943-2.09,1.834-3.185,2.794
			c-3.775-4.445-2.388-9.829-2.653-15.153c-0.878,0.724-1.623,1.29-2.303,1.927c-0.196,0.185-0.305,0.574-0.288,0.86
			c0.132,2.232,0.225,4.472,0.507,6.687c0.092,0.717,0.681,1.385,1.097,2.041c0.42,0.661,1.143,1.25,0.48,2.115
			c-1.062,1.386-1.971,1.641-3.158,1.033c-0.974-0.497-1.541-1.217-1.564-2.335c-0.054-2.634-0.238-5.272-0.125-7.899
			c0.054-1.26-0.181-2.183-0.983-3.144c-1.496-1.791-1.423-1.277-0.049-3.139c0.375-0.507,0.81-0.97,1.429-1.704
			c1.015,1.228,1.953,2.362,2.974,3.598c1.344-2.54,2.515-4.754,3.685-6.967c0.154,0.042,0.309,0.085,0.463,0.127
			c0.138,0.628,0.391,1.256,0.39,1.883c0,1.371,0.687,1.812,1.96,1.946c1.25,0.131,2.472,0.525,3.706,0.804
			c0.032,0.112,0.063,0.224,0.096,0.335c-1.597,0.943-3.169,1.931-4.8,2.81c-0.691,0.372-0.967,0.759-0.928,1.568
			C132.352,179.232,133.011,182.514,135.438,185.589z"/>
		<path fill-rule="evenodd" clip-rule="evenodd" d="M97.721,217.224c-0.895,0.997-1.739,1.937-2.695,3.002
			c-0.817-1.126-1.694-2.046-2.208-3.136c-0.398-0.845-0.42-1.899-0.474-2.869c-0.106-1.906,0.152-3.879-0.254-5.709
			c-0.343-1.549-1.412-2.937-2.274-4.619c0.677-0.643,1.648-1.566,2.882-2.739c1.082,1.537,2.086,2.964,3.081,4.376
			c1.204-1.354,2.611-2.936,4.017-4.517c1.338,0.929,2.542,1.712,3.675,2.588c0.277,0.214,0.445,0.731,0.449,1.111
			c0.021,2.116-0.064,4.234-0.032,6.351c0.024,1.642,0.594,3.114,1.639,4.405c0.964,1.192,0.753,2.105-0.607,2.842
			c-1.997,1.082-2.263,0.994-3.204-1.151c-0.859-1.96-0.873-4.034-0.765-6.119c0.019-0.358,0.062-0.716,0.079-1.074
			c0.162-3.338,0.161-3.338-2.946-4.683C94.374,208.507,94.254,213.216,97.721,217.224z"/>
		<path fill-rule="evenodd" clip-rule="evenodd" d="M92.085,217.271c-1.081,0.88-2.062,1.678-3.273,2.665
			c-1.151-1.329-2.247-2.593-3.356-3.872c-1.83,1.292-3.454,2.438-5.194,3.666c-1.251-1.391-2.458-2.713-3.637-4.058
			c-0.17-0.194-0.302-0.499-0.302-0.752c0.004-2.628,0.01-5.257,0.094-7.884c0.013-0.427,0.358-0.878,0.635-1.256
			c1.56-2.133,3.572-3.763,5.862-5.037c0.323-0.18,1.004-0.101,1.306,0.134c1.166,0.904,2.276,1.889,3.338,2.915
			c0.29,0.28,0.465,0.808,0.476,1.228c0.05,1.997,0.062,3.997,0.016,5.994c-0.033,1.407,0.412,2.519,1.477,3.477
			C90.436,215.309,91.197,216.293,92.085,217.271z M81.003,203.066c-0.228,0.199-0.338,0.26-0.398,0.353
			c-1.781,2.795-1.6,5.937-1.574,9.045c0.002,0.197,0.215,0.416,0.373,0.586c1.03,1.111,2.072,2.212,3.274,3.488
			c0.9-1.114,2.102-1.948,2.274-2.958c0.324-1.897,0.07-3.897,0.013-5.854c-0.008-0.285-0.199-0.615-0.4-0.837
			C83.414,205.621,82.233,204.38,81.003,203.066z"/>
		<path fill-rule="evenodd" clip-rule="evenodd" d="M115.696,173.201c-1.789,1.23-2.564,2.629-2.522,4.791
			c0.053,2.758,0.041,5.354,2.789,7.172c-1.367,1.141-2.517,2.1-3.768,3.144c-1.125-1.621-1.645-3.357-1.737-5.191
			c-0.109-2.149-0.028-4.308-0.103-6.46c-0.018-0.512-0.2-1.121-0.523-1.502c-2.267-2.667-2.285-2.651,0.089-5.537
			c1.286,1.033,2.576,2.069,3.865,3.105c1.36-1.136,2.644-2.207,4.006-3.343c0.911,0.812,1.88,1.489,2.583,2.377
			c0.39,0.491,0.435,1.331,0.462,2.021c0.089,2.236,0.109,4.477,0.135,6.715c0.019,1.622,0.387,3.063,1.817,4.055
			c0.284,0.197,0.485,0.516,0.78,0.839c-1.194,0.888-2.336,1.736-3.551,2.64c-1.523-1.553-2.027-3.412-2.115-5.388
			c-0.074-1.675-0.113-3.374,0.09-5.03c0.17-1.383-0.113-2.402-1.212-3.245C116.378,174.054,116.075,173.613,115.696,173.201z"/>
		<path fill-rule="evenodd" clip-rule="evenodd" d="M89.28,102.899c-1.085,2.069-1.409,4.04-1.115,6.099
			c0.22,1.538,0.44,3.093,0.87,4.58c0.365,1.261,0.069,2.137-0.878,2.944c-0.357,0.305-0.598,0.747-1.008,1.275
			c-1.171-1.938-1.471-3.796-1.673-5.677c-0.252-2.34-0.404-4.694-0.748-7.021c-0.16-1.085-0.564-2.17-1.052-3.159
			c-0.358-0.727-0.302-1.135,0.315-1.599c0.6-0.45,1.143-0.974,1.878-1.609c0.847,1.228,1.628,2.359,2.536,3.675
			c1.435-1.122,2.831-2.213,4.476-3.5c-0.01,3.251,2.65,3.726,4.813,4.797c-0.224,0.308-0.336,0.597-0.547,0.729
			c-1.887,1.188-1.825,2.927-1.289,4.731c0.653,2.196,1.414,4.36,2.187,6.715c-0.529,0.279-1.332,0.809-2.212,1.116
			c-0.36,0.125-1.009-0.102-1.32-0.39c-1.494-1.387-1.704-3.276-1.814-5.167c-0.051-0.876-0.098-1.77,0.009-2.636
			c0.2-1.618-0.39-2.861-1.539-3.935C90.561,104.3,90.013,103.668,89.28,102.899z"/>
		<path fill-rule="evenodd" clip-rule="evenodd" d="M49.447,188.989c-1.024-1.215-2.115-2.429-3.1-3.722
			c-0.308-0.404-0.463-1.025-0.459-1.546c0.017-2.634,0.088-5.268,0.196-7.899c0.019-0.443,0.21-0.967,0.499-1.299
			c1.744-2.005,3.539-3.964,5.139-5.741c1.718,1.566,3.19,2.895,4.64,4.248c0.148,0.139,0.21,0.423,0.226,0.645
			c0.178,2.548,0.352,5.096,0.492,7.645c0.021,0.374-0.022,0.862-0.244,1.119c-2.037,2.356-4.077,4.72-6.806,6.335
			C49.896,188.853,49.733,188.886,49.447,188.989z M49.707,171.829c-0.453,3.257-0.883,6.291-1.281,9.33
			c-0.036,0.277,0.052,0.66,0.231,0.862c0.995,1.126,2.036,2.212,3.044,3.294c2.758-1.807,2.948-2.24,2.43-5.341
			c-0.046-0.275-0.063-0.556-0.116-0.83C53.467,176.295,52.427,173.729,49.707,171.829z"/>
		<path fill-rule="evenodd" clip-rule="evenodd" d="M55.364,197.017c-1.881,2.073-3.583,3.949-5.284,5.824
			c-0.116-0.091-0.232-0.182-0.349-0.272c0.116-2.511,1.102-4.639,2.893-6.428c1.874-1.872,3.937-2.838,6.557-1.531
			c0.42,0.21,0.909,0.282,1.576,0.479c-0.668,0.928-1.334,1.746-1.873,2.642c-0.311,0.517-0.587,1.158-0.584,1.741
			c0.017,2.594,0.294,5.194,0.176,7.779c-0.097,2.124-0.442,4.278-1.003,6.329c-0.468,1.712-1.736,3.002-3.555,4.045
			c0.345-1.418,0.732-2.591,0.897-3.794c0.236-1.722,0.477-3.474,0.409-5.2c-0.074-1.904-1.277-2.609-3.151-2.147
			c-0.756,0.188-1.505,0.404-2.257,0.607c-0.063-0.083-0.126-0.167-0.189-0.25c0.634-0.801,1.23-1.634,1.91-2.393
			c0.904-1.012,1.932-1.916,2.8-2.955C55.491,200.113,55.7,199.099,55.364,197.017z"/>
		<path fill-rule="evenodd" clip-rule="evenodd" d="M51.167,98.269c1.314,1.639,2.588,3.176,3.791,4.767
			c0.259,0.342,0.347,0.878,0.361,1.33c0.058,1.797-0.029,3.604,0.102,5.394c0.09,1.225-0.31,2.136-1.084,3.021
			c-1.75,2-3.711,3.729-6.137,5.147c-1.34-1.932-3.057-3.523-3.05-6.158c0.005-1.943-0.395-3.888-0.6-5.833
			c-0.028-0.265-0.078-0.608,0.053-0.798C46.418,102.49,48.523,100.118,51.167,98.269z M48.311,101.89
			c-0.114,0.032-0.229,0.064-0.343,0.097c0,2.255,0.2,4.533-0.05,6.76c-0.32,2.855,1.585,4.399,3.045,6.354
			c0.187-0.224,0.317-0.329,0.381-0.465c1.234-2.605,1.28-5.395,1.246-8.193c-0.002-0.179-0.1-0.399-0.227-0.526
			C51.021,104.566,49.664,103.23,48.311,101.89z"/>
		<path fill-rule="evenodd" clip-rule="evenodd" d="M106.374,151.923c0.772-0.384,1.545-0.769,2.425-1.207
			c0.53,0.742,1.054,1.476,1.569,2.198c1.605-1.142,3.155-2.245,4.706-3.348c0.155,0.169,0.312,0.338,0.467,0.506
			c-2.013,2.405-4.025,4.81-6.075,7.259c-0.836-0.706-1.451-1.276-2.118-1.778c-1.985-1.495-3.326-3.228-2.952-5.957
			c0.258-1.886,0.056-3.833,0.316-5.718c0.15-1.092,0.81-2.115,1.272-3.249c1.189,0.865,1.849,1.666,1.524,3.034
			c-0.233,0.985-0.242,2.023-0.392,3.402c1.591-1.373,2.922-2.489,4.199-3.665c0.168-0.154,0.163-0.65,0.059-0.918
			c-0.411-1.069-1.025-1.965-2.224-2.316c-0.445-0.13-0.849-0.399-1.435-0.684c1.566-1.184,3.015-2.278,4.586-3.465
			c0.996,1.711,1.979,3.341,2.878,5.016c0.113,0.21-0.13,0.746-0.36,0.982c-1.476,1.516-2.988,2.997-4.499,4.477
			C108.724,148.057,107.134,149.623,106.374,151.923z"/>
		<path fill-rule="evenodd" clip-rule="evenodd" d="M93.167,137.129c1.229,1.296,2.376,2.505,3.589,3.785
			c1.184-0.983,2.308-1.917,3.575-2.97c1.209,1.108,2.4,2.199,3.718,3.408c-0.986,1.192-1.911,2.311-2.901,3.507
			c-1.022-1.072-1.972-2.067-2.94-3.083c-2.387,3.605-1.947,8.176,1.196,12.758c-0.904,0.957-1.825,1.932-2.795,2.959
			c-1.748-1.754-2.365-3.875-2.454-6.142c-0.074-1.909,0.137-3.828,0.094-5.74c-0.015-0.644-0.278-1.394-0.68-1.893
			c-0.895-1.113-1.948-2.1-2.99-3.194C91.446,139.385,92.283,138.288,93.167,137.129z"/>
		<path fill-rule="evenodd" clip-rule="evenodd" d="M70.825,94.321c0.981-0.914,1.879-1.749,2.847-2.65
			c0.822,0.904,1.635,1.723,2.347,2.621c0.238,0.3,0.319,0.806,0.305,1.212c-0.099,2.994-0.25,5.985-0.365,8.979
			c-0.111,2.885-0.069,5.805,1.027,8.489c0.843,2.067,0.389,3.432-1.482,4.625c-1.227-1.905-2.525-3.796-2.494-6.247
			c0.052-4.074,0.054-8.149,0.203-12.22c0.048-1.331-0.158-2.414-1.156-3.332C71.622,95.398,71.29,94.886,70.825,94.321z"/>
		<path fill-rule="evenodd" clip-rule="evenodd" d="M37.003,166.574c-0.218,2.436-0.475,4.715-0.609,7.001
			c-0.083,1.432-0.104,2.89,0.064,4.31c0.286,2.421-1.101,4.019-2.562,5.959c-0.481-5.104-0.735-9.899,0.355-14.664
			c0.085-0.372,0.279-0.758,0.528-1.047c1.746-2.023,3.519-4.023,5.196-5.933c1.606,1.751,3.146,3.427,4.75,5.175
			c-0.62,0.56-1.313,1.286-2.115,1.859c-0.29,0.207-0.933,0.212-1.257,0.029C39.97,168.487,38.647,167.605,37.003,166.574z"/>
		<path fill-rule="evenodd" clip-rule="evenodd" d="M84.169,114.91c-0.771,0.914-1.509,1.787-2.324,2.751
			c-0.78-0.664-1.564-1.219-2.193-1.916c-0.296-0.329-0.383-0.922-0.411-1.405c-0.181-3.181-0.301-6.365-0.487-9.545
			c-0.037-0.625-0.153-1.305-0.444-1.846c-0.806-1.497-0.373-2.618,0.841-3.611c0.273-0.223,0.488-0.518,0.732-0.783
			c1.9,1.209,2.297,2.935,2.083,5.037c-0.193,1.897-0.209,3.827-0.121,5.734C81.942,111.394,82.607,113.309,84.169,114.91z"/>
		<path fill-rule="evenodd" clip-rule="evenodd" d="M104.074,125.623c0.544,0,0.967,0,1.528,0
			c-0.279,4.597,1.196,9.304-1.393,14.002C103.102,134.784,104.42,130.267,104.074,125.623z"/>
		<path fill-rule="evenodd" clip-rule="evenodd" fill="none" d="M32.918,104.135c0.82,0.087,1.451,0.157,2.083,0.222
			c3.479,0.357,5.184,2.274,4.901,5.715c-0.119,1.451-0.527,2.877-0.818,4.392c-2.784-0.513-5.354-0.986-7.676-1.413
			c0-6.16,0-12.231,0-18.303c0.176-0.068,0.352-0.136,0.528-0.204c1.435,1.242,2.883,2.468,4.299,3.731
			c0.683,0.61,0.66,1.302,0.059,1.987C35.22,101.489,34.151,102.72,32.918,104.135z"/>
		<path fill-rule="evenodd" clip-rule="evenodd" fill="none" d="M84.392,142.029c-1.772,0-3.26,0-4.871,0
			c0.691-2.31,1.379-4.612,2.067-6.915c0.095-0.022,0.189-0.044,0.283-0.066C82.676,137.277,83.48,139.506,84.392,142.029z"/>
		<path fill-rule="evenodd" clip-rule="evenodd" fill="none" d="M127.324,93.514c1.272,1.458,1.354,1.54,0.089,2.793
			c-2.069,2.048-3.356,4.184-2.573,7.32c0.485,1.942,0.288,4.047,0.492,6.069c0.078,0.774,0.421,1.521,0.69,2.443
			c1.64-1.445,1.868-3.254,2.079-5.056c0.125-1.07,0.206-2.149,0.235-3.225c0.02-0.708,0.255-0.982,0.998-0.955
			c2.056,0.076,4.314,1.405,4.837,3.179c0.625,2.12,0.586,4.234-1.258,5.843c-0.928,0.81-1.964,1.502-2.992,2.186
			c-0.249,0.166-0.712,0.214-0.987,0.101c-1.253-0.515-2.561-0.972-3.69-1.697c-2.537-1.63-3.568-4.236-3.972-7.071
			C120.7,101.423,123.729,95.588,127.324,93.514z"/>
		<path fill-rule="evenodd" clip-rule="evenodd" fill="none" d="M163.692,100.827c1.161,1.082,2.046,1.906,3.046,2.837
			c-1.126,0.817-2.124,1.541-3.123,2.266c-0.101-0.051-0.202-0.103-0.303-0.154C163.431,104.228,163.55,102.681,163.692,100.827z"/>
		<path fill-rule="evenodd" clip-rule="evenodd" fill="none" d="M63.734,206.085c1.267-0.081,2.343-0.109,3.409-0.229
			c1.351-0.153,2.331,0.436,3.074,1.463c0.56,0.773,1.039,1.607,1.514,2.438c0.123,0.214,0.188,0.545,0.118,0.771
			c-0.451,1.444-0.891,2.896-1.469,4.291c-0.14,0.338-0.821,0.714-1.185,0.654c-2.341-0.381-4.664-0.878-6.809-1.3
			c0-5.771,0-11.236,0-16.707c0.122,0.011,0.172,0,0.2,0.021c4.447,3.181,4.558,3.379,1.614,7.775
			C64.049,205.486,63.932,205.732,63.734,206.085z"/>
		<path fill-rule="evenodd" clip-rule="evenodd" fill="none" d="M104.056,113.985c-2.762-4.096-1.56-8.61-2.008-13.194
			c1.018,0.771,1.783,1.507,2.683,1.999c1.986,1.083,2.639,2.665,3.011,4.911c0.452,2.734-0.059,4.481-2.576,5.601
			C104.811,113.459,104.498,113.709,104.056,113.985z"/>
		<path fill-rule="evenodd" clip-rule="evenodd" fill="none" d="M154.897,100.553c2.025,2.303,1.144,5.024-2.07,6.544
			C153.551,104.81,154.194,102.775,154.897,100.553z"/>
		<path fill-rule="evenodd" clip-rule="evenodd" fill="none" d="M114.026,201.465c1.811,2.358,2.435,4.958,2.629,7.695
			c0.06,0.833-0.046,1.682,0.049,2.509c0.163,1.42-0.337,2.409-1.546,3.188c-0.59,0.38-0.906,0.43-1.546,0.064
			c-1.842-1.051-2.941-2.254-2.366-4.633c0.337-1.394,0.136-2.938,0.043-4.407c-0.069-1.118,0.175-2.01,1.043-2.747
			C112.9,202.652,113.399,202.089,114.026,201.465z"/>
		<path fill-rule="evenodd" clip-rule="evenodd" fill="none" d="M119.26,140.673c3.1-0.295,5.188,1.03,7.109,2.713
			c0.206,0.182,0.194,0.663,0.207,1.007c0.056,1.512,0.055,3.027,0.133,4.538c0.04,0.764-0.178,1.25-0.896,1.617
			c-1.166,0.595-2.273,1.305-3.522,2.035c-0.969-1.184-1.925-2.339-2.859-3.51c-0.112-0.141-0.163-0.368-0.164-0.556
			C119.256,145.937,119.26,143.354,119.26,140.673z"/>
		<path fill-rule="evenodd" clip-rule="evenodd" fill="none" d="M81.003,203.066c1.229,1.313,2.41,2.555,3.562,3.823
			c0.202,0.222,0.392,0.552,0.4,0.837c0.057,1.956,0.311,3.956-0.013,5.854c-0.173,1.01-1.375,1.844-2.274,2.958
			c-1.202-1.276-2.244-2.377-3.274-3.488c-0.158-0.17-0.371-0.389-0.373-0.586c-0.026-3.108-0.208-6.25,1.574-9.045
			C80.665,203.326,80.776,203.266,81.003,203.066z"/>
		<path fill-rule="evenodd" clip-rule="evenodd" fill="none" d="M49.707,171.829c2.72,1.9,3.76,4.466,4.309,7.315
			c0.053,0.274,0.07,0.555,0.116,0.83c0.518,3.101,0.328,3.534-2.43,5.341c-1.008-1.082-2.049-2.168-3.044-3.294
			c-0.179-0.202-0.268-0.585-0.231-0.862C48.824,178.12,49.254,175.086,49.707,171.829z"/>
		<path fill-rule="evenodd" clip-rule="evenodd" fill="none" d="M48.311,101.89c1.353,1.34,2.71,2.676,4.053,4.026
			c0.127,0.127,0.225,0.348,0.227,0.526c0.034,2.799-0.012,5.588-1.246,8.193c-0.064,0.136-0.194,0.241-0.381,0.465
			c-1.46-1.955-3.366-3.499-3.045-6.354c0.25-2.228,0.05-4.505,0.05-6.76C48.082,101.955,48.197,101.922,48.311,101.89z"/>
	</g>
</g>
</svg>
