<?xml version="1.0" encoding="UTF-8" ?>
<!DOCTYPE svg PUBLIC "-//W3C//DTD SVG 1.1//EN" "http://www.w3.org/Graphics/SVG/1.1/DTD/svg11.dtd">
<svg width="200pt" height="292pt" viewBox="0 0 200 292" version="1.1" xmlns="http://www.w3.org/2000/svg">
<path fill="#ffffff" d=" M 0.00 0.00 L 200.00 0.00 L 200.00 292.00 L 0.00 292.00 L 0.00 0.00 Z" />
<path fill="#4a4a4a" d=" M 104.21 7.21 C 105.05 6.39 105.90 5.56 106.75 4.74 C 108.15 8.06 109.61 11.39 111.58 14.42 C 115.80 20.43 121.83 25.23 124.75 32.10 C 125.83 35.65 127.23 39.23 127.23 42.99 C 126.06 50.65 123.79 58.19 120.08 65.00 C 117.21 69.16 114.92 73.73 111.47 77.46 C 118.26 76.17 125.35 76.09 132.18 76.82 C 139.02 80.74 146.96 83.67 154.93 82.10 C 161.71 80.26 165.79 74.18 170.93 69.89 C 175.12 66.01 179.94 62.92 184.57 59.60 C 187.78 57.36 191.98 57.83 195.63 58.43 C 194.94 63.24 195.03 68.11 195.37 72.95 C 195.93 90.27 195.37 107.63 196.11 124.95 C 196.11 135.95 195.41 146.99 196.16 157.98 C 194.94 160.19 192.94 162.22 193.08 164.93 C 193.01 168.62 191.98 172.55 189.06 175.03 C 183.48 179.78 176.14 182.77 172.38 189.40 C 170.57 193.84 168.83 198.33 166.47 202.51 C 163.84 207.37 157.87 208.38 153.70 211.47 C 155.47 215.12 157.74 218.76 157.28 223.01 C 156.51 233.20 149.56 241.68 142.28 248.29 C 136.76 252.28 131.73 257.44 124.99 259.29 C 117.81 261.21 110.65 263.28 103.21 263.93 C 103.56 272.59 97.18 280.43 89.06 282.86 C 84.70 284.09 79.94 285.30 75.51 283.66 C 69.97 281.72 64.80 277.50 63.18 271.67 C 62.26 269.10 62.09 265.78 64.75 264.19 C 64.66 265.14 64.48 267.02 64.39 267.96 C 66.13 277.33 77.40 284.94 86.53 280.68 C 92.88 277.37 99.30 272.24 100.36 264.69 C 91.53 263.73 82.09 263.80 74.30 258.86 C 64.99 255.56 58.74 247.57 53.04 239.94 C 50.77 236.66 49.46 232.87 47.60 229.38 C 43.30 223.90 37.73 219.18 30.85 217.42 C 26.29 215.85 21.50 217.86 16.88 216.79 C 13.10 216.27 9.72 214.43 6.28 212.91 C 6.42 186.92 6.45 160.92 7.14 134.94 C 7.74 119.98 6.22 105.03 7.39 90.08 C 7.23 79.54 7.67 68.92 6.28 58.45 C 23.53 58.29 40.76 57.32 58.02 57.39 C 61.41 57.23 64.69 56.27 68.06 55.86 C 70.90 59.96 72.93 64.77 76.86 68.01 C 79.80 70.15 83.11 71.72 85.99 73.97 C 88.55 75.77 91.10 77.80 94.12 78.76 C 97.66 79.11 101.24 78.96 104.77 78.59 C 105.01 64.72 104.88 50.83 104.82 36.96 C 104.44 27.05 105.34 17.09 104.21 7.21 Z" />
<path fill="#ffffff" d=" M 106.84 12.43 C 111.45 19.82 118.42 25.54 122.24 33.42 C 126.15 42.07 123.16 51.93 118.69 59.74 C 115.69 66.08 111.60 71.82 107.12 77.19 C 106.96 55.61 107.58 34.01 106.84 12.43 Z" />
<path fill="#ffffff" d=" M 11.12 62.23 C 29.09 61.63 47.08 61.30 65.05 60.88 C 68.29 60.45 69.09 64.30 70.71 66.29 C 73.13 69.84 76.56 72.63 80.33 74.65 C 84.84 76.99 88.38 81.01 93.36 82.44 C 95.83 82.98 98.38 83.01 100.89 83.28 C 96.83 86.76 92.10 89.69 88.91 94.06 C 88.15 95.76 89.82 95.97 91.02 96.40 C 93.87 90.31 100.08 87.01 104.73 82.47 C 104.94 86.87 104.22 91.25 104.59 95.64 C 108.65 92.49 105.84 86.78 107.24 82.59 C 115.86 80.00 124.95 80.21 133.85 80.33 C 140.40 85.07 148.71 87.50 156.73 85.86 C 160.78 84.76 164.43 82.43 167.42 79.51 C 174.51 72.23 182.46 65.75 191.17 60.51 C 191.73 68.32 191.52 76.17 192.08 83.99 C 191.96 95.33 191.51 106.69 192.27 118.02 C 192.00 130.76 192.59 143.49 192.45 156.23 C 190.88 158.94 188.49 161.56 188.75 164.91 C 189.15 169.61 185.71 173.54 181.99 175.92 C 176.36 179.05 171.41 183.21 167.59 188.41 C 166.58 192.96 164.66 197.26 162.23 201.22 C 160.05 205.20 155.21 206.11 151.72 208.55 C 147.11 203.02 139.77 199.90 132.62 201.81 C 134.32 203.44 136.62 203.23 138.79 203.31 C 142.80 204.34 146.34 206.85 149.09 209.91 C 146.04 212.24 142.66 214.20 140.02 217.03 C 136.08 220.77 133.39 225.68 128.98 228.92 C 125.73 231.31 122.52 233.77 119.41 236.34 C 115.30 239.68 113.55 245.02 109.52 248.44 C 107.67 249.86 105.47 250.71 103.41 251.76 C 103.23 242.54 103.82 233.31 103.48 224.09 C 103.07 223.58 102.24 222.57 101.82 222.06 C 100.98 232.27 102.01 242.57 100.60 252.75 C 93.17 252.85 84.86 249.77 81.12 242.95 C 78.38 238.77 74.45 235.18 69.80 233.28 C 63.35 231.29 56.39 230.09 50.66 226.37 C 48.16 219.89 46.59 212.97 45.40 206.12 C 45.33 199.51 45.06 192.91 45.23 186.30 C 41.38 189.84 42.60 195.36 42.53 200.00 C 43.15 207.38 43.39 214.90 45.55 222.03 C 39.83 214.95 30.04 211.07 21.02 212.51 C 17.28 212.63 13.63 211.54 10.10 210.44 C 10.05 188.96 10.36 167.48 10.37 146.01 C 11.16 136.68 10.79 127.31 10.84 117.97 C 10.44 105.24 11.32 92.50 10.93 79.80 C 10.89 73.94 10.58 68.07 11.12 62.23 Z" />
<path fill="#4a4a4a" d=" M 17.57 100.16 C 16.71 96.44 18.97 93.02 22.10 91.22 C 24.66 91.19 27.21 91.60 29.77 91.76 C 25.98 98.54 28.09 106.62 27.51 114.01 C 29.56 111.40 28.34 108.00 28.42 104.99 C 28.14 101.24 28.72 97.48 30.09 93.98 C 31.42 92.87 32.79 91.81 34.21 90.81 C 35.86 92.56 38.01 93.92 39.20 96.05 C 39.44 97.70 38.43 99.18 37.94 100.70 C 39.36 101.47 40.78 102.28 42.18 103.09 C 43.64 108.41 41.40 114.07 37.30 117.58 C 33.14 116.82 28.77 115.29 24.69 117.26 C 24.76 116.96 24.91 116.37 24.98 116.07 C 24.45 116.17 23.38 116.39 22.85 116.49 C 24.84 113.41 25.95 109.26 24.20 105.84 C 22.56 103.34 20.14 107.13 18.24 107.54 C 19.65 104.68 21.84 102.33 24.57 100.71 C 24.58 98.94 24.65 97.18 24.77 95.41 C 23.50 95.09 22.23 94.75 20.96 94.41 C 20.39 96.63 19.23 98.59 17.57 100.16 Z" />
<path fill="#4a4a4a" d=" M 70.54 94.08 C 71.50 93.18 72.47 92.28 73.43 91.39 C 74.36 92.40 75.28 93.42 76.20 94.44 C 76.11 100.96 74.69 107.83 77.18 114.07 C 78.02 115.58 75.93 116.48 75.34 117.64 C 74.17 115.58 72.58 113.51 72.76 111.00 C 72.68 106.33 72.72 101.65 72.96 96.98 C 72.15 96.02 71.34 95.05 70.54 94.08 Z" />
<path fill="#4a4a4a" d=" M 118.93 100.53 C 121.00 97.02 123.11 93.13 127.24 91.74 C 127.79 92.31 128.34 92.87 128.90 93.43 C 129.44 92.94 130.53 91.96 131.07 91.47 C 132.36 92.97 134.49 94.22 135.05 96.11 C 133.20 98.35 130.57 96.96 128.40 96.47 C 128.02 98.00 127.78 99.57 127.50 101.12 C 130.22 99.67 133.22 99.19 136.03 100.69 C 137.15 104.17 137.47 108.14 135.42 111.35 C 133.42 115.78 127.39 118.75 122.99 116.01 C 119.16 113.78 118.29 109.08 117.28 105.14 C 115.81 105.76 114.50 106.68 113.10 107.43 C 113.88 104.32 115.80 101.58 118.93 100.53 Z" />
<path fill="#ffffff" d=" M 127.10 93.25 C 127.43 93.80 127.76 94.36 128.09 94.92 C 126.65 96.47 125.34 98.13 124.02 99.78 C 125.31 103.80 123.80 108.33 125.88 112.08 C 128.48 109.63 127.77 105.93 128.31 102.76 C 131.29 102.65 134.53 104.57 134.10 107.94 C 134.47 111.07 131.40 112.64 129.20 114.09 C 126.76 113.00 123.64 112.25 122.65 109.43 C 118.95 103.97 122.35 96.81 127.10 93.25 Z" />
<path fill="#ffffff" d=" M 31.44 94.43 C 33.27 95.78 35.36 96.97 36.53 98.99 C 35.58 101.02 33.64 102.35 32.30 104.11 C 35.02 103.99 38.30 104.51 39.52 107.33 C 39.93 109.64 39.33 111.96 38.63 114.15 C 36.06 113.56 33.47 113.05 30.85 112.73 C 31.87 106.67 30.87 100.53 31.44 94.43 Z" />
<path fill="#4a4a4a" d=" M 44.18 105.07 C 46.07 102.35 48.27 99.84 51.00 97.94 C 52.27 99.75 53.62 101.51 55.11 103.15 C 55.14 105.79 55.16 108.43 55.23 111.07 C 53.32 113.83 50.80 116.05 47.93 117.76 C 47.00 116.44 46.07 115.13 45.12 113.83 C 44.92 110.90 44.62 107.97 44.18 105.07 Z" />
<path fill="#4a4a4a" d=" M 98.89 101.98 C 100.46 100.48 102.01 98.88 103.98 97.91 C 106.24 98.87 108.39 100.04 110.71 100.85 C 109.79 105.60 110.57 110.50 111.86 115.11 C 113.00 118.36 109.95 121.36 106.98 122.12 C 104.88 123.16 102.79 121.74 100.84 121.08 C 99.31 121.86 97.78 122.64 96.23 123.38 C 97.51 121.10 98.99 118.27 101.92 117.96 C 104.43 118.04 106.83 118.94 109.31 119.29 C 108.76 117.22 108.13 115.18 107.52 113.13 C 105.74 114.53 103.90 115.85 102.03 117.13 C 101.00 115.96 99.95 114.80 98.89 113.65 C 98.75 109.76 98.81 105.87 98.89 101.98 Z" />
<path fill="#4a4a4a" d=" M 137.88 100.89 C 138.93 99.66 140.18 98.62 141.40 97.57 C 142.00 98.88 142.60 100.20 143.20 101.52 C 144.72 100.44 146.25 99.38 147.79 98.32 C 148.79 99.64 149.78 100.95 150.74 102.30 C 151.10 102.15 151.82 101.86 152.18 101.71 C 153.73 100.19 155.44 98.84 157.21 97.60 C 158.12 98.89 159.02 100.20 159.90 101.51 C 157.98 104.26 155.42 106.46 153.03 108.79 C 153.33 110.38 153.65 111.96 153.98 113.55 C 155.63 112.80 157.31 112.12 159.02 111.51 C 157.43 114.05 154.73 115.49 152.35 117.17 C 149.25 113.57 149.57 108.15 150.99 103.93 C 150.78 103.51 150.56 103.10 150.35 102.69 C 149.80 103.19 148.71 104.20 148.17 104.71 C 146.90 103.91 145.69 103.02 144.45 102.17 C 143.93 106.57 142.74 111.38 145.56 115.27 C 144.38 115.98 143.19 116.69 142.01 117.39 C 139.98 113.53 141.12 109.14 140.66 105.00 C 139.94 103.50 138.76 102.29 137.88 100.89 Z" />
<path fill="#4a4a4a" d=" M 159.81 103.33 C 161.81 101.18 164.00 99.22 166.45 97.59 C 167.22 98.50 168.00 99.41 168.77 100.33 C 169.81 99.64 170.85 98.95 171.88 98.26 C 172.76 98.98 173.64 99.69 174.52 100.40 C 176.86 98.94 179.32 97.18 182.26 97.74 C 182.10 99.33 181.09 100.55 180.15 101.76 C 179.89 104.12 179.44 106.53 179.93 108.89 C 180.69 110.77 182.57 111.82 184.09 113.04 C 182.47 113.75 180.97 115.11 179.12 115.02 C 175.11 111.32 177.47 105.29 176.59 100.55 C 173.33 103.26 174.28 107.71 173.78 111.42 C 174.69 112.03 175.59 112.65 176.49 113.27 C 175.41 114.15 174.34 115.03 173.27 115.90 C 172.65 115.44 171.41 114.51 170.79 114.04 C 170.35 110.07 172.73 105.24 170.13 101.85 C 167.94 103.76 165.86 105.80 163.59 107.63 C 163.87 109.49 164.19 111.34 164.53 113.18 C 166.17 111.98 167.82 110.80 169.60 109.81 C 168.69 113.25 165.10 114.54 162.56 116.55 C 160.07 112.65 160.50 107.74 159.81 103.33 Z" />
<path fill="#4a4a4a" d=" M 55.22 101.26 C 56.17 100.24 57.14 99.25 58.16 98.30 C 61.56 102.98 57.78 109.64 61.70 113.94 C 62.49 109.92 62.57 105.63 60.79 101.84 C 61.61 100.81 62.43 99.78 63.25 98.76 C 65.81 102.28 65.26 106.68 65.20 110.76 C 65.90 111.52 66.60 112.28 67.31 113.05 C 67.29 110.18 67.30 107.32 67.40 104.46 C 66.98 103.82 66.15 102.55 65.74 101.92 C 66.77 100.71 67.81 99.52 68.88 98.35 C 71.76 102.05 70.06 106.64 70.16 110.90 C 70.95 111.93 71.74 112.97 72.54 113.99 C 69.04 118.30 65.15 122.28 60.97 125.93 C 54.67 131.33 51.06 139.02 47.64 146.40 C 45.30 151.40 44.06 157.00 45.11 162.49 C 44.38 162.45 42.92 162.37 42.19 162.33 C 42.13 157.26 42.36 152.06 44.52 147.37 C 47.67 140.83 50.41 133.91 55.36 128.46 C 59.60 124.22 63.62 119.71 68.65 116.37 C 68.79 115.97 69.05 115.17 69.18 114.77 C 67.78 115.15 66.43 115.70 65.09 116.24 C 64.63 115.72 63.71 114.68 63.25 114.16 C 61.70 115.19 60.14 116.22 58.58 117.25 C 56.63 113.41 56.92 109.00 56.77 104.82 C 56.24 103.64 55.66 102.48 55.22 101.26 Z" />
<path fill="#4a4a4a" d=" M 77.37 100.83 C 78.16 99.93 78.94 99.03 79.73 98.13 C 80.23 98.71 81.22 99.86 81.71 100.44 C 82.06 105.18 80.24 110.90 83.96 114.68 C 83.18 115.61 82.39 116.54 81.60 117.47 C 80.74 116.73 79.87 115.99 79.02 115.25 C 78.59 110.45 79.49 105.33 77.37 100.83 Z" />
<path fill="#4a4a4a" d=" M 82.96 100.83 C 83.78 100.05 84.63 99.29 85.49 98.56 C 86.69 99.43 87.20 100.91 88.07 102.08 C 89.74 101.19 91.07 99.81 92.53 98.63 C 92.78 99.37 93.30 100.85 93.55 101.59 C 94.90 102.24 96.25 102.87 97.60 103.50 C 96.84 104.30 96.06 105.09 95.28 105.88 C 95.52 109.27 96.21 112.66 98.23 115.47 C 97.18 116.02 96.14 116.60 95.05 117.06 C 91.48 114.68 92.73 110.04 92.34 106.42 C 91.39 105.05 90.18 103.89 89.05 102.68 C 86.86 106.55 88.29 110.90 89.14 114.91 C 88.43 115.83 87.56 116.62 86.74 117.45 C 83.89 112.28 86.14 105.92 82.96 100.83 Z" />
<path fill="#ffffff" d=" M 101.91 100.67 C 103.52 102.02 105.19 103.30 106.96 104.44 C 107.17 106.61 107.45 108.78 107.75 110.94 C 106.46 111.84 105.16 112.75 103.87 113.65 C 101.19 109.86 102.30 105.00 101.91 100.67 Z" />
<path fill="#ffffff" d=" M 163.53 100.81 C 164.48 101.66 165.41 102.54 166.34 103.42 C 165.28 104.19 164.22 104.96 163.15 105.72 C 163.24 104.08 163.37 102.44 163.53 100.81 Z" />
<path fill="#ffffff" d=" M 47.90 101.58 C 49.34 103.05 50.78 104.51 52.28 105.93 C 52.23 108.94 52.31 112.07 50.78 114.79 C 49.78 113.55 48.83 112.28 47.89 111.01 C 47.83 107.86 47.64 104.72 47.90 101.58 Z" />
<path fill="#ffffff" d=" M 152.89 106.81 C 153.25 104.64 153.84 102.52 154.85 100.55 C 157.04 103.21 154.98 105.19 152.89 106.81 Z" />
<path fill="#4a4a4a" d=" M 103.77 125.33 C 104.20 125.32 105.06 125.31 105.49 125.30 C 105.04 129.98 106.68 135.35 103.92 139.49 C 102.82 134.83 104.15 130.05 103.77 125.33 Z" />
<path fill="#4a4a4a" d=" M 70.83 140.54 C 68.17 136.96 71.17 131.85 75.07 130.88 C 77.95 130.59 80.86 130.70 83.74 130.38 C 86.95 137.67 86.92 145.84 89.93 153.19 C 90.85 153.20 92.70 153.23 93.63 153.24 C 91.91 154.84 89.48 158.86 87.14 155.81 C 85.63 152.56 85.49 148.85 84.41 145.44 C 82.17 145.42 79.94 145.40 77.71 145.36 C 76.91 147.03 76.15 148.71 75.37 150.39 C 77.31 151.34 79.22 152.38 81.02 153.59 C 80.01 154.46 78.99 155.32 77.96 156.18 C 75.71 155.35 73.39 153.55 70.89 154.36 C 68.76 155.28 66.98 156.82 64.95 157.92 C 66.45 154.53 69.61 152.60 72.53 150.62 C 75.65 145.56 77.35 139.80 79.13 134.17 C 76.91 134.17 74.68 134.18 72.46 134.20 C 73.06 135.55 73.70 136.89 74.36 138.23 C 73.19 139.01 72.01 139.78 70.83 140.54 Z" />
<path fill="#ffffff" d=" M 81.46 134.71 C 82.36 137.01 83.22 139.32 83.94 141.68 C 82.39 141.75 80.84 141.81 79.29 141.88 C 80.13 139.53 80.81 137.12 81.46 134.71 Z" />
<path fill="#4a4a4a" d=" M 107.40 139.23 C 108.98 138.09 110.52 136.90 112.08 135.73 C 113.11 137.51 114.15 139.30 115.19 141.07 C 112.35 144.93 107.75 147.35 105.78 151.85 C 106.72 151.38 107.65 150.90 108.58 150.41 C 108.99 151.02 109.83 152.24 110.24 152.84 C 111.75 151.32 113.40 149.89 115.49 149.25 C 113.75 152.16 111.45 154.66 109.07 157.06 C 107.44 155.40 105.10 154.12 104.16 151.96 C 104.38 148.03 103.15 143.70 105.97 140.40 C 106.47 140.93 106.96 141.47 107.45 142.02 C 107.31 143.22 107.02 145.61 106.88 146.81 C 108.41 145.49 109.93 144.16 111.45 142.84 C 111.05 142.10 110.65 141.35 110.26 140.61 C 109.29 140.17 108.34 139.72 107.40 139.23 Z" />
<path fill="#4a4a4a" d=" M 90.30 140.29 C 91.18 139.13 92.05 137.98 92.93 136.83 C 94.13 138.11 95.33 139.40 96.53 140.69 C 97.69 139.68 98.82 138.64 100.07 137.73 C 101.44 138.72 102.60 139.97 103.82 141.14 C 102.85 142.32 101.88 143.49 100.91 144.66 C 99.88 143.59 98.87 142.51 97.86 141.43 C 95.89 145.64 95.73 150.79 99.29 154.20 C 98.32 155.25 97.33 156.29 96.34 157.32 C 92.86 153.68 93.98 148.68 94.00 144.14 C 92.76 142.86 91.52 141.58 90.30 140.29 Z" />
<path fill="#4a4a4a" d=" M 117.72 139.85 C 119.43 136.94 123.27 137.74 126.08 137.11 C 127.09 138.29 128.13 139.45 129.20 140.58 C 129.19 143.71 129.26 146.84 129.55 149.95 C 130.69 151.13 131.82 152.33 132.92 153.54 C 131.98 154.51 131.04 155.48 130.09 156.44 C 128.78 155.05 127.52 153.62 126.31 152.14 C 124.30 153.72 122.19 155.18 119.99 156.49 C 118.73 154.84 117.46 153.21 116.14 151.62 C 116.59 147.73 115.02 143.16 117.72 139.85 Z" />
<path fill="#ffffff" d=" M 119.27 140.49 C 122.05 140.18 124.26 141.65 126.28 143.35 C 126.28 145.48 126.28 147.61 126.33 149.74 C 124.89 150.54 123.47 151.37 122.07 152.24 C 121.11 151.03 120.13 149.83 119.14 148.65 C 119.15 145.93 119.17 143.21 119.27 140.49 Z" />
<path fill="#4a4a4a" d=" M 102.95 157.22 C 107.25 160.12 104.69 166.03 104.26 170.20 C 105.12 170.81 105.98 171.43 106.84 172.05 C 106.51 175.42 106.30 178.81 106.24 182.21 C 107.30 183.27 108.38 184.31 109.46 185.36 C 108.35 186.36 107.28 187.42 106.02 188.23 C 104.99 187.20 104.11 186.06 103.20 184.93 C 101.57 186.30 99.85 187.55 98.02 188.63 C 96.78 186.97 94.62 185.45 95.12 183.10 C 95.50 179.92 95.03 176.76 94.13 173.72 C 93.40 171.93 95.36 170.77 96.18 169.45 C 98.85 173.42 97.95 178.27 98.14 182.75 C 98.78 183.48 99.49 184.14 100.27 184.72 C 104.86 182.36 104.51 175.38 101.03 172.18 C 101.57 171.59 102.10 171.00 102.64 170.42 C 102.13 166.03 102.84 161.62 102.95 157.22 Z" />
<path fill="#4a4a4a" d=" M 31.95 162.93 C 33.69 161.33 36.59 161.58 38.29 163.13 C 36.17 164.29 33.80 164.79 31.56 165.63 C 27.28 170.71 26.01 179.75 31.56 184.44 C 33.52 186.33 37.15 187.38 39.36 185.35 C 42.71 183.24 40.84 177.90 44.96 176.37 C 44.81 182.56 40.73 188.21 34.95 190.37 C 30.34 189.50 25.67 186.16 25.40 181.12 C 24.92 178.75 26.28 175.65 24.22 173.88 C 22.89 174.92 21.66 176.08 20.35 177.14 C 20.87 173.73 22.92 170.16 26.67 169.75 C 28.29 167.38 29.77 164.84 31.95 162.93 Z" />
<path fill="#4a4a4a" d=" M 34.10 168.37 C 35.94 166.03 37.99 163.88 40.02 161.72 C 41.04 163.92 42.77 165.57 44.74 166.93 C 43.83 167.77 42.93 168.63 41.96 169.41 C 40.06 168.83 38.55 167.48 36.97 166.34 C 36.10 170.18 36.02 174.12 36.23 178.03 C 36.62 180.35 34.70 182.03 33.60 183.82 C 33.19 178.70 32.81 173.39 34.10 168.37 Z" />
<path fill="#4a4a4a" d=" M 127.67 172.87 C 128.68 170.38 129.61 167.79 131.56 165.85 C 131.73 166.80 132.07 168.71 132.24 169.67 C 134.15 170.00 136.05 170.36 137.91 170.90 C 136.06 172.29 134.06 173.47 131.98 174.46 C 132.02 178.31 132.55 182.09 135.09 185.14 C 134.20 186.29 133.12 187.27 132.08 188.27 C 128.29 184.02 129.40 178.16 129.41 172.94 C 128.54 173.67 127.67 174.39 126.80 175.12 C 126.89 177.84 127.10 180.56 127.37 183.28 C 128.20 184.52 130.49 186.05 128.19 187.13 C 127.13 188.95 125.52 187.65 124.36 186.72 C 123.57 183.04 124.00 179.23 123.97 175.50 C 123.20 174.61 122.47 173.69 121.78 172.74 C 122.50 171.59 123.40 170.58 124.26 169.54 C 125.41 170.63 126.55 171.74 127.67 172.87 Z" />
<path fill="#4a4a4a" d=" M 45.78 175.12 C 47.27 172.40 49.61 170.31 52.01 168.42 C 53.43 169.95 54.87 171.48 56.35 172.96 C 56.59 175.93 56.84 178.91 56.93 181.90 C 54.62 184.46 52.40 187.20 49.29 188.83 C 48.02 187.29 46.41 185.96 45.54 184.14 C 45.63 181.13 45.70 178.13 45.78 175.12 Z" />
<path fill="#4a4a4a" d=" M 56.22 172.01 C 57.11 171.02 58.01 170.04 58.91 169.06 C 60.19 170.14 61.44 171.26 62.59 172.49 C 63.49 171.59 64.39 170.69 65.37 169.90 C 66.40 170.55 67.35 171.32 68.32 172.06 C 69.19 171.31 70.05 170.56 70.92 169.82 C 71.86 170.96 72.79 172.11 73.71 173.26 C 73.77 177.55 72.44 182.47 75.97 185.79 C 74.86 186.80 73.74 187.80 72.61 188.78 C 70.00 184.97 70.84 180.26 70.82 175.93 C 69.86 175.11 68.90 174.30 67.92 173.51 C 67.60 176.29 67.45 179.10 67.54 181.90 C 68.40 183.44 69.54 184.80 70.58 186.24 C 69.37 187.05 68.15 187.84 66.93 188.64 C 62.66 184.20 66.57 177.61 63.36 172.80 C 61.70 175.71 61.50 179.06 61.49 182.33 C 62.54 183.39 63.57 184.48 64.59 185.57 C 63.72 186.65 62.86 187.72 62.00 188.80 C 60.95 187.85 59.90 186.92 58.84 186.01 C 58.88 182.13 58.91 178.25 58.90 174.37 C 58.01 173.58 57.11 172.80 56.22 172.01 Z" />
<path fill="#4a4a4a" d=" M 74.48 172.39 C 75.22 171.47 75.97 170.55 76.72 169.63 C 77.36 170.07 78.64 170.96 79.27 171.40 C 79.37 171.77 79.56 172.49 79.65 172.85 C 80.78 171.69 81.91 170.54 83.05 169.39 C 84.09 170.64 85.15 171.89 86.25 173.10 C 87.46 171.75 88.75 170.46 90.14 169.29 C 90.25 170.15 90.45 171.86 90.56 172.72 C 90.95 173.06 91.73 173.75 92.12 174.09 C 92.39 177.90 91.17 182.21 93.66 185.52 C 94.67 186.86 92.52 187.98 92.06 189.18 C 91.04 188.34 90.03 187.49 89.01 186.66 C 89.26 182.13 89.47 177.40 86.87 173.44 C 86.18 177.60 84.40 182.73 88.06 186.00 C 87.00 186.92 85.95 187.82 84.88 188.73 C 81.37 184.19 84.85 177.61 81.06 173.10 C 78.33 177.20 78.97 182.53 81.64 186.49 C 80.63 187.34 79.61 188.19 78.60 189.04 C 74.43 184.15 78.76 177.07 74.48 172.39 Z" />
<path fill="#4a4a4a" d=" M 107.79 172.87 C 107.59 171.45 109.03 170.45 109.58 169.26 C 110.92 170.33 112.26 171.40 113.56 172.52 C 114.84 171.32 116.18 170.19 117.58 169.13 C 118.60 170.00 119.59 170.89 120.56 171.82 C 120.77 175.46 120.53 179.13 121.04 182.76 C 121.83 183.54 122.62 184.32 123.42 185.11 C 122.20 186.03 120.97 186.94 119.74 187.85 C 116.57 184.46 117.82 179.56 117.74 175.38 C 116.93 174.56 116.13 173.73 115.33 172.92 C 114.57 173.69 113.81 174.48 113.05 175.26 C 113.07 177.50 113.07 179.74 113.07 181.98 C 113.92 183.01 114.77 184.04 115.61 185.07 C 114.39 186.10 113.16 187.11 111.92 188.11 C 109.37 184.35 110.18 179.69 110.08 175.43 C 109.28 174.61 108.52 173.75 107.79 172.87 Z" />
<path fill="#4a4a4a" d=" M 139.40 169.50 C 140.48 170.49 141.55 171.49 142.61 172.50 C 141.58 176.64 140.59 181.47 143.91 184.88 C 147.33 183.39 146.57 179.70 146.79 176.68 C 145.92 175.20 144.90 173.75 144.49 172.06 C 145.30 171.13 146.19 170.28 147.07 169.42 C 147.98 170.82 148.91 172.23 149.85 173.63 C 148.99 177.41 150.12 181.19 150.86 184.89 C 152.02 188.13 149.20 190.89 147.05 192.92 C 144.68 195.49 141.40 192.94 138.77 192.27 C 137.12 192.89 135.60 193.81 133.98 194.50 C 135.38 192.38 136.93 190.26 139.08 188.84 C 141.82 188.93 144.36 190.10 146.95 190.88 C 147.30 190.39 148.01 189.41 148.36 188.92 C 147.90 187.53 147.46 186.14 147.03 184.75 C 145.29 186.04 143.55 187.31 141.76 188.52 C 137.78 185.32 138.48 180.05 139.49 175.63 C 138.67 174.68 137.85 173.73 137.05 172.76 C 137.82 171.66 138.60 170.58 139.40 169.50 Z" />
<path fill="#ffffff" d=" M 48.17 181.40 C 48.74 178.19 49.07 174.95 49.53 171.73 C 53.24 174.32 53.89 178.73 54.05 182.91 C 53.42 183.44 52.17 184.48 51.54 185.00 C 50.41 183.81 49.29 182.60 48.17 181.40 Z" />
<path fill="#4a4a4a" d=" M 108.24 195.00 C 108.17 192.16 110.73 190.37 112.76 188.88 C 112.32 190.56 111.65 192.19 111.32 193.90 C 112.77 198.06 118.64 198.52 119.31 203.10 C 120.48 208.87 119.89 216.42 113.86 219.27 C 111.00 219.50 109.30 216.67 107.20 215.19 C 108.01 211.89 107.69 208.48 108.04 205.14 C 109.17 203.74 110.61 202.67 111.96 201.52 C 110.21 199.72 108.06 197.76 108.24 195.00 Z" />
<path fill="#4a4a4a" d=" M 59.43 199.00 C 60.37 196.58 62.14 194.62 63.79 192.67 C 65.82 194.64 68.01 196.47 69.75 198.73 C 69.17 199.65 68.58 200.56 67.99 201.48 C 72.34 201.64 74.40 205.68 74.37 209.59 C 72.73 212.68 71.76 216.56 68.50 218.40 C 65.28 219.29 62.11 217.62 58.95 217.25 C 57.30 218.06 55.82 219.15 54.23 220.05 C 55.58 217.47 57.49 215.27 59.61 213.29 C 59.95 208.52 58.90 203.75 59.43 199.00 Z" />
<path fill="#4a4a4a" d=" M 54.38 194.37 C 56.22 192.81 58.58 194.45 60.60 194.79 C 59.82 195.97 58.95 197.09 58.10 198.22 C 57.65 204.77 60.53 213.44 53.59 217.53 C 54.33 214.22 55.75 210.69 54.79 207.31 C 53.56 205.08 51.11 206.65 49.31 206.97 C 50.85 203.12 56.19 201.66 55.18 196.86 C 53.87 197.86 52.83 199.13 52.06 200.57 C 51.41 201.10 50.10 202.16 49.45 202.69 C 49.44 199.22 51.38 196.09 54.38 194.37 Z" />
<path fill="#ffffff" d=" M 62.12 197.10 C 63.38 198.37 65.48 199.16 65.94 201.04 C 65.47 202.91 64.17 204.42 63.18 206.03 C 64.76 205.89 66.34 205.60 67.94 205.70 C 69.90 206.26 70.60 208.42 71.65 209.93 C 71.10 211.68 70.66 213.49 69.81 215.14 C 67.13 215.32 64.58 214.27 62.01 213.67 C 62.99 208.17 61.89 202.63 62.12 197.10 Z" />
<path fill="#4a4a4a" d=" M 76.23 206.30 C 77.99 203.59 80.60 201.55 83.40 200.02 C 84.85 201.37 86.33 202.71 87.89 203.95 C 87.78 206.92 87.78 209.90 88.02 212.86 C 89.35 214.21 90.64 215.61 91.88 217.05 C 90.84 217.89 89.80 218.73 88.76 219.57 C 87.50 218.37 86.26 217.15 85.04 215.93 C 83.39 217.15 81.74 218.35 80.04 219.50 C 78.70 218.01 77.18 216.66 76.03 215.01 C 75.78 212.13 75.61 209.14 76.23 206.30 Z" />
<path fill="#4a4a4a" d=" M 95.22 205.89 C 96.49 204.00 98.02 202.30 99.67 200.73 C 100.97 201.78 102.33 202.76 103.77 203.63 C 103.99 207.69 102.44 212.56 105.80 215.73 C 105.82 216.15 105.86 217.00 105.89 217.43 C 104.89 217.97 103.89 218.51 102.90 219.06 C 99.54 215.70 100.96 210.77 100.81 206.54 C 99.79 206.02 98.78 205.50 97.77 204.97 C 96.94 205.98 96.11 207.00 95.27 208.01 C 94.71 211.35 95.15 214.69 97.70 217.15 C 96.73 218.10 95.76 219.04 94.80 219.99 C 93.51 218.21 91.47 216.47 92.05 214.01 C 92.34 210.41 92.45 206.34 89.16 204.01 C 90.18 203.02 91.21 202.05 92.24 201.09 C 93.77 202.34 95.20 203.75 95.22 205.89 Z" />
<path fill="#ffffff" d=" M 113.74 201.31 C 116.42 204.80 116.52 209.16 116.27 213.37 C 115.56 213.93 114.85 214.50 114.14 215.07 C 113.07 214.29 111.99 213.52 110.92 212.75 C 111.24 209.89 111.26 207.02 111.11 204.15 C 111.98 203.20 112.86 202.25 113.74 201.31 Z" />
<path fill="#ffffff" d=" M 78.90 212.45 C 78.90 209.18 78.63 205.69 80.67 202.90 C 81.97 204.32 83.42 205.62 84.60 207.15 C 84.86 209.28 84.74 211.45 84.78 213.60 C 84.00 214.37 83.24 215.16 82.48 215.95 C 81.34 214.72 80.15 213.55 78.90 212.45 Z" />
<path fill="#ffffff" d=" M 137.43 226.49 C 141.55 221.41 145.70 216.16 151.48 212.86 C 153.10 216.31 154.88 219.96 154.20 223.90 C 154.14 228.47 151.32 232.18 149.26 236.03 C 143.73 244.16 135.85 250.41 127.18 254.93 C 119.46 258.27 111.08 259.48 102.93 261.28 C 102.94 259.96 102.96 258.64 102.98 257.33 C 106.70 255.28 110.23 252.94 113.90 250.81 C 116.33 247.25 118.80 243.71 121.35 240.23 C 126.27 235.15 132.70 231.77 137.43 226.49 Z" />
<path fill="#ffffff" d=" M 52.03 232.15 C 56.34 233.91 60.64 235.79 65.24 236.66 C 72.18 237.65 77.87 242.78 81.32 248.65 C 85.55 254.96 93.62 256.69 100.71 257.28 C 100.79 257.91 100.94 259.16 101.01 259.79 C 91.61 260.97 81.63 259.50 73.31 254.80 C 64.83 248.81 56.57 241.68 52.03 232.15 Z" />
</svg>
